<mxfile host="app.diagrams.net" modified="2021-06-04T17:04:34.505Z" agent="5.0 (Macintosh; Intel Mac OS X 10_15_7) AppleWebKit/537.36 (KHTML, like Gecko) Chrome/90.0.4430.212 Safari/537.36" etag="SKvqViK4Fr2X_4pflnYs" version="14.7.0" type="github">
  <diagram id="u9yrpnH_iiY0wKvWa0Lf" name="Page-1">
    <mxGraphModel dx="2326" dy="2047" grid="1" gridSize="10" guides="1" tooltips="1" connect="1" arrows="1" fold="1" page="1" pageScale="1" pageWidth="827" pageHeight="1169" math="0" shadow="0">
      <root>
        <mxCell id="0" />
        <mxCell id="1" parent="0" />
        <mxCell id="fkvTgUBqeuzuS-CQp719-2" value="" style="shape=image;verticalLabelPosition=bottom;labelBackgroundColor=#ffffff;verticalAlign=top;aspect=fixed;imageAspect=0;image=data:image/png,iVBORw0KGgoAAAANSUhEUgAABaAAAAMWCAYAAAAH4yGaAAAgAElEQVR4Aezde7xd45348d+fiURUqeqNaqlQVaqG+jGKjmuLalpVjbrUGMa4jFI1jFJVl1GqSpUaQ5VRpcbw06pRvRg9J3eJIIlLQxF+2fvknJOc8c/ze0V/IUhO1lp77bWfZ633H15tSfZe+3nea53n++l+xf96Yv7TwV/WgAEGGGCAAQYYYIABBhhggAEGGGCAAQYYYKBsA//rlVdeCf6yBgwwwAADDHTfwHXXXRcmTpyY6a9JkyaFF1980c9o5xQGGGCAAQYYYIABBhhggIGkDQjQACcNWDDrfjCzxtaYgXINiNDlrief1pMBBhhggAEGGGCAAQYYiNuAAC1AC9AMMMAAAxUbEKHjPhw5vNofBhhggAEGGGCAAQYYYKA8AwJ0xdEB3vLwWktryQADKRsQoflN2a9r55cBBhhggAEGGGCAAQayGhCgBWjffGSAAQYY6JEBEdqBLeuBza9jhQEGGGCAAQYYYIABBlI1IED3KDqkCsZ1e9gxwAAD5RoQoctdTz6tJwMMMMAAAwwwwAADDDAQlwEBWoD2zUcGGGCAgR4bEKHjOhw5rNoPBhhggAEGGGCAAQYYYKA8AwJ0j6MDzOVhtpbWkgEGUjYgQvObsl/Xzi8DDDDAAAMMMMAAAwyszoAALUD75iMDDDDAQCQGRGgHttUd2Px9NhhggAEGGGCAAQYYYCBVAwJ0JNEhVUCu28OPAQYYKNeACF3uevJpPRlggAEGGGCAAQYYYICB3hoQoAVo33xkgAEGGIjMgAjd28ORw6n1Z4ABBhhggAEGGGCAAQbKMyBARxYd4C4Pt7W0lgwwkLIBEZrflP26dn4ZYIABBhhggAEGGGBghQEBWoD2zUcGGGCAgUgNiNAObCsObP6TBQYYYIABBhhggAEGGEjVgAAdaXRIFZTr9jBkgAEGyjUgQpe7nnxaTwYYYIABBhhggAEGGGCgWgMCtADtm48MMMAAA5EbEKGrPRw5jFpvBhhggAEGGGCAAQYYYKA8AwJ05NEB9vKwW0tryQADKRsQoflN2a9r55cBBhhggAEGGGCAgeYaEKAFaN98ZIABBhhIxIAI3dwDm8O6vWeAAQYYYIABBhhggIFUDQjQiUSHVIG5bg9HBhhgoFwDInS568mn9WSAAQYYYIABBhhggAEGumtAgBagffORAQYYYCAxAyJ0dw9HDp/WlwEGGGCAAQYYYIABBhgoz4AAnVh0gL88/NbSWjLAQMoGRGh+U/br2vllgAEGGGCAAQYYYKA5BgRoAdo3HxlggAEGEjUgQjfnwOZwbq8ZYIABBhhggAEGGGAgVQMCdKLRIVVwrtvDkgEGGCjXgAhd7nryaT0ZYIABBhhggAEGGGCAgXINCNACtG8+MsAAAwwkbkCELvdw5LBpPRlggAEGGGCAAQYYYICB8gwI0IlHBzdDeTeDtbSWDDCQsgERmt+U/bp2fhlggAEGGGCAAQYYqK8BAVqA9s1HBhhggIGaGBCh63tgcxi3twwwwAADDDDAAAMMMJCqAQG6JtEhVYCu28OTAQYYKNeACF3uevJpPRlggAEGGGCAAQYYYICBzgwI0AK0bz4ywAADDNTMgAjd2eHI4dL6McAAAwwwwAADDDDAAAPlGRCgaxYd3Bzl3RzW0loywEDKBkRoflP269r5ZYABBhhggAEGGGCgPgYEaAHaNx8ZYIABBmpqQISuz4HN4dteMsAAAwwwwAADDDDAQKoGBOiaRodUQbpuD1MGGGCgXAMidLnryaf1ZIABBhhggAEGGGCAAQbyGRCgBWjffGSAAQYYqLkBETrf4chh0noxwAADDDDAAAMMMMAAA+UZEKBrHh3cLOXdLNbSWjLAQMoGRGh+U/br2vllgAEGGGCAAQYYYCBdAwK0AO2bjwwwwAADDTEgQqd7YHPYtncMMMAAAwwwwAADDDCQqgEBuiHRIVWgrtvDlQEGGCjXgAhd7nryaT0ZYIABBhhggAEGGGCAgdENCNACtG8+MsAAAww0zIAIPfrhyOHR+jDAAAMMMMAAAwwwwAAD5RkQoBsWHdw85d081tJaMsBAygZEaH5T9uva+WWAAQYYYIABBhhgIB0DArQA7ZuPDDDAAAMNNSBCp3Ngc7i2VwwwwAADDDDAAAMMMJCqAQG6odEhVbCu28OWAQYYKNeACF3uevJpPRlggAEGGGCAAQYYYICBNxoQoAVo33xkgAEGGGi4ARH6jYcjh0XrwQADDDDAAAMMMMAAAwyUZ0CAbnh0cDOVdzNZS2vJAAMpGxCh+U3Zr2vnlwEGGGCAAQYYYICBeA0I0AK0bz4ywAADDDDwqgEROt4Dm8O0vWGAAQYYYIABBhhggIFUDQjQooPwxAADDDDAwGsGRGiH2lQPta6bXQYYYIABBhhggAEG4jQgQIsOr0UHN2mcN6l9sS8MMFC1ARGauarNeT/mGGCAAQYYYIABBhiorwEBWoAWoBlggAEGGHiLARG6voc/B3t7ywADDDDAAAMMMMAAA1UaEKBFh7dEhyoBei8PPAYYYCBeAyJ0vHvjvrE3DDDAAAMMMMAAAwwwkIoBAVqAFqAZYIABBhhYrQER2qE2lUOt62SVAQYYYIABBhhggIE4DQjQosNqo4ObNs6b1r7YFwYYqNqACM1c1ea8H3MMMMAAAwwwwAADDNTHgAAtQAvQDDDAAAMMrNGACF2fw5+DvL1kgAEGGGCAAQYYYICBKg0I0KLDGqNDlSC9lwcgAwwwEK8BETrevXHf2BsGGGCAAQYYYIABBhiI1YAALUAL0AwwwAADDGQ2IEI71MZ6qHVdbDLAAAMMMMAAAwwwEKcBAVp0yBwd3MRx3sT2xb4wwEDVBkRo5qo25/2YY4ABBhhggAEGGGAgXQMCtAAtQDPAAAMMMJDbgAid7uHPwd3eMcAAAwwwwAADDDDAQJUGBGjRIXd0qBKo9/JAZIABBuI1IELHuzfuG3vDAAMMMMAAAwwwwAADsRgQoAVoAZoBBhhggIHCBkRoh9pYDrWug0UGGGCAAQYYYIABBuI0IECLDoWjg5s6zpvavtgXBhio2oAIzVzV5rwfcwwwwAADDDDAAAMMpGNAgBagBWgGGGCAAQY6NiBCp3P4c1C3VwwwwAADDDDAAAMMMFClAQFadOg4OlQJ1nt5QDLAAAPxGhCh490b9429YYABBhhggAEGGGCAgV4ZEKAFaAGaAQYYYICB0gyI0A61vTrUel/2GGCAAQYYYIABBhiI04AALTqUFh3c5HHe5PbFvjDAQNUGRGjmqjbn/ZhjgAEGGGCAAQYYYCBeAwK0AC1AM8AAAwwwULoBETrew5+Dub1hgAEGGGCAAQYYYICBKg0I0KJD6dGhSsDeywOTAQYYiNeACB3v3rhv7A0DDDDAAAMMMMAAAwxUZUCAFqAFaAYYYIABBrpmQIR2qK3qUOt9WGOAAQYYYIABBhhgIE4DArTo0LXo4KaP86a3L/aFAQaqNiBCM1e1Oe/HHAMMMMAAAwwwwAAD8RgQoAVoAZoBBhhggIGuGxCh4zn8OYjbCwYYYIABBhhggAEGGKjSgAAtOnQ9OlQJ2nt5gDLAAAPxGhCh490b9429YYABBhhggAEGGGCAgW4ZEKAFaAGaAQYYYICBygyI0A613TrUel22GGCAAQYYYIABBhiI04AALTpUFh08BOJ8CNgX+8IAA1UbEKGZq9qc92OOAQYYYIABBhhggIHeGRCgBWgBmgEGGGCAgcoNiNC9O/w5eFt7BhhggAEGGGCAAQYYqNKAAC06VB4dqgTuvTxQGWCAgXgNiNDx7o37xt4wwAADDDDAAAMMMMBAWQYEaAFagGaAAQYYYKBnBkRoh9qyDrVehyUGGGCAAQYYYIABBuI0IECLDj2LDh4KcT4U7It9YYCBqg2I0MxVbc77MccAAwwwwAADDDDAQHUGBGgBWoBmgAEGGGCg5wZE6OoOfw7a1poBBhhggAEGGGCAAQaqNCBAiw49jw5VgvdeHrAMMMBAvAZE6Hj3xn1jbxhggAEGGGCAAQYYYKCoAQFagBagGWCAAQYYiMaACO1QW/RQ6/exwwADDDDAAAMMMMBAnAYEaNEhmujgIRHnQ8K+2BcGGKjagAjNXNXmvB9zDDDAAAMMMMAAAwx0z4AALUAL0AwwwAADDERnQITu3uHPwdraMsAAAwwwwAADDDDAQJUGBGjRIbroUOUN4L08cBlggIF4DYjQ8e6N+8beMMAAAwwwwAADDDDAQFYDArQALUAzwAADDDAQrQER2qE266HWr2OFAQYYYIABBhhggIE4DQjQokO00cFDI86Hhn2xLwwwULUBEZq5qs15P+YYYIABBhhggAEGGCjPgAAtQAvQDDDAAAMMRG9AhC7v8OcgbS0ZYIABBhhggAEGGGCgSgMCtOgQfXSo8obwXh7ADDDAQLwGROh498Z9Y28YYIABBhhggAEGGGBgdQYEaAFagGaAAQYYYCAZAyK0Q+3qDrX+PhsMMMAAAwwwwAADDMRpQIAWHZKJDh4icT5E7It9YYCBqg2I0MxVbc77MccAAwwwwAADDDDAQHEDArQALUAzwAADDDCQnAERuvjhz8HZ2jHAAAMMMMAAAwwwwECVBgRo0SG56FDlDeK9PJAZYICBeA2I0PHujfvG3jDAAAMMMMAAAwwwwMAKAwK0AC1AM8AAAwwwkKwBEdqhdsWh1n+ywAADDDDAAAMMMMBAnAYEaNEh2ejgoRLnQ8W+2BcGGKjagAjNXNXmvB9zDDDAAAMMMMAAAwxkNyBAC9ACNAMMMMAAA8kbEKGzH/4clK0VAwwwwAADDDDAAAMMVGlAgBYdko8OVd4w3ssDmgEGGIjXgAgd7964b+wNAwwwwAADDDDAAAPNNSBAC9ACNAMMMMAAA7UxIEI391BroLH3DDDAAAMMMMAAAwzEaUCAFh1qEx08ZOJ8yNgX+8IAA1UbEKGZq9qc92OOAQYYYIABBhhggIHVGxCgBWgBmgEGGGCAgdoZEKFXf/hzMLY2DDDAAAMMMMAAAwwwUKUBAVp0qF10qPIG8l4e2AwwwEC8BkToePfGfWNvGGCAAQYYYIABBhhojgEBWoAWoBlggAEGGKitARG6OYdaA4y9ZoABBhhggAEGGGAgTgMCtOhQ2+jgoRPnQ8e+2BcGGKjagAjNXNXmvB9zDDDAAAMMMMAAAwy8bkCAFqAFaAYYYIABBmpvQIR+/fDnIGwtGGCAAQYYYIABBhhgoEoDArToUPvoUOUN5b08wBlggIF4DYjQ8e6N+8beMMAAAwwwwAADDDBQXwMCtAAtQDPAAAMMMNAYAyJ0fQ+1BhZ7ywADDDDAAAMMMMBAnAYEaNGhMdHBQyjOh5B9sS8MMFC1ARGauarNeT/mGGCAAQYYYIABBppsQIAWoAVoBhhggAEGGmdAhDYANHkA8Nn5Z4ABBhhggAEGGKjSgAAtOjQuOlR5g3kvD3QGGGAgXgMidLx7476xNwwwwAADDDDAAAMM1MeAAC1AC9AMMMAAAww01oAIXZ9DrQHFXjLAAAMMMMAAAwwwEKcBAVp0aGx08FCK86FkX+wLAwxUbUCEZq5qc96POQYYYIABBhhggIEmGRCgBWgBmgEGGGCAgcYbEKENAE0aAHxW3hlggAEGGGCAAQaqNCBAiw6Njw5V3nDeywOeAQYYiNeACB3v3rhv7A0DDDDAAAMMMMAAA+kaEKAFaAGaAQYYYIABBv6/ARE63UOtgcTeMcAAAwwwwAADDDAQpwEBWnQQHRhggAEGGGBgJQMidJyHVsOEfWGAAQYYYIABBhhgIE0DAvRKAyfEaSK2b/aNAQYYYKBsAyI0U2Wb8npMMcAAAwwwwAADDDTVgAAtQPvWGwMMMMAAAwyswoAIbUBo6oDgc7PPAAMMMMAAAwwwUKYBAXoVA2eZC+y13LAMMMAAAwyka0CETnfv3Hf2jgEGGGCAAQYYYICBOAwI0AK0b70xwAADDDDAwCgGROg4Dq2GB/vAAAMMMMAAAwwwwECaBgToUQZOqNNEbd/sGwMMMMBA2QZEaKbKNuX1mGKAAQYYYIABBhhoigEBWoD2rTcGGGCAAQYYyGBAhDYgNGVA8DlZZ4ABBhhggAEGGCjTgACdYeAsc8G9lhuYAQYYYICBdA2I0OnunfvO3jHAAAMMMMAAAwww0BsDArQA7VtvDDDAAAMMMJDDgAjdm0OrYcG6M8AAAwwwwAADDDCQpgEBOsfACXmayO2bfWOAAQYYKNuACM1U2aa8HlMMMMAAAwwwwAADdTUgQAvQvvXGAAMMMMAAAwUMiNAGhLoOCD4X2wwwwAADDDDAAANlGhCgCwycZW6A13JDM8AAAwwwkK4BETrdvXPf2TsGGGCAAQYYYIABBqoxIEAL0L71xgADDDDAAAMdGBChqzm0Gg6sMwMMMMAAAwwwwAADaRoQoDsYOKFPE719s28MMMAAA2UbEKGZKtuU12OKAQYYYIABBhhgoC4GBGgB2rfeGGCAAQYYYKAEAyK0AaEuA4LPwTIDDDDAAAMMMMBAmQYE6BIGzjI3xGu5wRlggAEGGEjXgAid7t657+wdAwwwwAADDDDAAAPdMSBAC9C+9cYAAwwwwAADJRoQobtzaDUMWFcGGGCAAQYYYIABBtI0IECXOHC6CdK8CeybfWOAAQYYKNuACM1U2aa8HlMMMMAAAwwwwAADqRoQoAVo33pjgAEGGGCAgS4YEKENCKkOCK6bXQYYYIABBhhggIEyDQjQXRg4y9wgr+WGZ4ABBhhgIF0DInS6e+e+s3cMMMAAAwwwwAADDJRjQIAWoH3rjQEGGGCAAQa6aECELufQ6vBvHRlggAEGGGCAAQYYSNOAAN3FgdNNkeZNYd/sGwMMMMBA2QZEaKbKNuX1mGKAAQYYYIABBhhIxYAALUD71hsDDDDAAAMMVGBAhDYgpDIguE5WGWCAAQYYYIABBso0IEBXMHCWuWFeywOAAQYYYICBdA2I0OnunfvO3jHAAAMMMMAAAwwwUMyAAC1A+9YbAwwwwAADDFRoQIQudmh12LduDDDAAAMMMMAAAwykaUCArnDgdJOkeZPYN/vGAAMMMFC2ARGaqbJNeT2mGGCAAQYYYIABBmI1IEAL0L71xgADDDDAAAM9MCBCGxBiHRBcF5sMMMAAAwwwwAADZRoQoHswcJa5gV7LA4EBBhhggIF0DYjQ6e6d+87eMcAAAwwwwAADDDCQzYAALUD71hsDDDDAAAMM9NCACJ3t0Opwb50YYIABBhhggAEGGEjTgADdw4HTTZPmTWPf7BsDDDDAQNkGRGimyjbl9ZhigAEGGGCAAQYYiMWAAC1A+9YbAwwwwAADDERgQIQ2IMQyILgOFhlggAEGGGCAAQbKNCBARzBwlrmhXssDggEGGGCAgXQNiNDp7p37zt4xwAADDDDAAAMMMLBqAwK0AO1bbwwwwAADDDAQkQERetWHVod568IAAwwwwAADDDDAQJoGBOiIBk43UZo3kX2zbwwwwAADZRsQoZkq25TXY4oBBhhggAEGGGCgVwYEaAHat94YYIABBhhgIEIDIrQBoVcDgvdljwEGGGCAAQYYYKBMAwJ0hANnmRvstTwwGGCAAQYYSNeACJ3u3rnv7B0DDDDAAAMMMMAAA38xIEAL0L71xgADDDDAAAMRGxChDS4GFwYYYIABBhhggAEGUjYgQEc8cKYMy7V7MDLAAAMMMFCeARG6vLXk0loywAADDDDAAAMMMFCtAQFagPatNwYYYIABBhhIwIAIXe0h2VBivRlggAEGGGCAAQYYKMeAAJ3AwAl7Odito3VkgAEGGEjdgAjNcOqGXT/DDDDAAAMMMMBA8wwI0AK0b70xwAADDDDAQEIGROjmHdgNafacAQYYYIABBhhgIGUDAnRCA2fK0Fy7ByUDDDDAAAPlGRChy1tLLq0lAwwwwAADDDDAAAPdNSBAC9C+9cYAAwwwwAADCRoQobt7SDaEWF8GGGCAAQYYYIABBsoxIEAnOHDCXw5+62gdGWCAAQZSNyBCM5y6YdfPMAMMMMAAAwwwUH8DArQA7VtvDDDAAAMMMJCwARG6/gd2Q5k9ZoABBhhggAEGGEjZgACd8MCZMjzX7sHJAAMMMMBAeQZE6PLWkktryQADDDDAAAMMMMBAuQYEaAHat94YYIABBhhgoAYGROhyD8mGDuvJAAMMMMAAAwwwwEA5BgToGgycboZybgbraB0ZYIABBlI3IEIznLph188wAwwwwAADDDBQPwMCtADtW28MMMAAAwwwUCMDInT9DuyGMHvKAAMMMMAAAwwwkLIBAbpGA2fKEF27BykDDDDAAAPlGRChy1tLLq0lAwwwwAADDDDAAAOdGRCgBWjfemOAAQYYYICBGhoQoTs7JBsyrB8DDDDAAAMMMMAAA+UYEKBrOHC6Ocq5OayjdWSAAQYYSN2ACM1w6oZdP8MMMMAAAwwwwED6BgRoAdq33hhggAEGGGCgxgZE6PQP7IYue8gAAwwwwAADDDCQsgEBusYDZ8owXbsHKwMMMMAAA+UZEKHLW0surSUDDDDAAAMMMMAAA/kMCNACtG+9McAAAwwwwEADDIjQ+Q7JhgrrxQADDDDAAAMMMMBAOQYE6AYMnG6Wcm4W62gdGWCAAQZSNyBCM5y6YdfPMAMMMMAAAwwwkJ4BAVqA9q03BhhggAEGGGiQARE6vQO7IcueMcAAAwwwwAADDKRsQIBu0MCZMlTX7kHLAAMMMMBAeQZE6PLWkktryQADDDDAAAMMMMDA6AYEaAHat94YYIABBhhgoIEGROjRD8mGCOvDAAMMMMAAAwwwwEA5BgToBg6cbp5ybh7raB0ZYIABBlI3IEIznLph188wAwwwwAADDDAQvwEBWoD2rTcGGGCAAQYYaLABETr+A7uhyh4xwAADDDDAAAMMpGxAgG7wwJkyXNfuwcsAAwwwwEB5BkTo8taSS2vJAAMMMMAAAwwwwMAbDQjQArRvvTHAAAMMMMAAA0GEfuMh2dBgPRhggAEGGGCAAQYYKMeAAG3gFB0YYIABBhhggIFXDYjQ5RywDSrWkQEGGGCAAQYYYICB1w0I0AZO0YEBBhhggAEGGHjNgAj9+kHZ0GAtGGCAAQYYYIABBhjo3IAAbeB8beB0Q3V+Q1lDa8gAAwwwUAcDIjTHdXDsM3DMAAMMMMAAAwzEYUCAFqAFaAYYYIABBhhg4C0GROg4DuuGJvvAAAMMMMAAAwwwkLoBAdrA+ZaBM3XUrt+DmQEGGGCAgXIMiNDlrCOP1pEBBhhggAEGGGCgyQYEaAFagGaAAQYYYIABBlZrQIQ2LDV5WPLZ+WeAAQYYYIABBjo3IEAbOFc7cLrBOr/BrKE1ZIABBhiogwERmuM6OPYZOGaAAQYYYIABBnpjQIAWoAVoBhhggAEGGGBgjQZE6N4c1g1J1p0BBhhggAEGGGAgdQMCtIFzjQNn6shdvwc1AwwwwAAD5RgQoctZRx6tIwMMMMAAAwwwwECTDAjQArQAzQADDDDAAAMMZDYgQhuWmjQs+ay8M8AAAwwwwAADnRsQoA2cmQdON1znN5w1tIYMMMAAA3UwIEJzXAfHPgPHDDDAAAMMMMBANQYEaAFagGaAAQYYYIABBnIbEKGrOawbiqwzAwwwwAADDDDAQOoGBGgDZ+6BM3X0rt+DmwEGGGCAgXIMiNDlrCOP1pEBBhhggAEGGGCgzgYEaAFagGaAAQYYYIABBgobEKENS3Uelnw2vhlggAEGGGCAgc4NCNAGzsIDpxuw8xvQGlpDBhhggIE6GBChOa6DY5+BYwYYYIABBhhgoDsGBGgBWoBmgAEGGGCAAQY6NiBCd+ewbgiyrgwwwAADDDDAAAOpGxCgDZwdD5yp3wSu34OcAQYYYICBcgyI0OWsI4/WkQEGGGCAAQYYYKBOBgRoAVqAZoABBhhggAEGSjMgQhuW6jQs+Sw8M8AAAwwwwAADnRsQoA2cpQ2cbsjOb0hraA0ZYIABBupgQITmuA6OfQaOGWCAAQYYYICBcgwI0AK0AM0AAwwwwAADDJRuQIQu57Bu6LGODDDAAAMMMMAAA6kbEKANnKUPnKnfFK7fg50BBhhggIFyDIjQ5awjj9aRAQYYYIABBhhgIGUDArQALUAzwAADDDDAAANdMyBCG5ZSHpZcO78MMMAAAwwwwEDnBgRoA2fXBk43aOc3qDW0hgwwwAADdTAgQnNcB8c+A8cMMMAAAwwwwEAxAwK0AC1AM8AAAwwwwAADXTcgQhc7rBtyrBsDDDDAAAMMMMBA6gYEaANn1wfO1G8S1+9BzwADDDDAQDkGROhy1pFH68gAAwwwwAADDDCQkgEBWoAWoBlggAEGGGCAgcoMiNCGpZSGJdfKKwMMMMAAAwww0LkBAdrAWdnA6Ybt/Ia1htaQAQYYYKAOBkRojuvg2GfgmAEGGGCAAQYYyGZAgBagBWgGGGCAAQYYYKByAyJ0tsO6ocY6McAAAwwwwAADDKRuQIA2cFY+cKZ+07h+D34GGGCAAQbKMSBCl7OOPFpHBhhggAEGGGCAgZgNCNACtADNAAMMMMAAAwz0zIAIbViKeVhybXwywAADDDDAAAOdGxCgDZw9GzjdwJ3fwNbQGjLAAAMM1MGACM1xHRz7DBwzwAADDDDAAAOrNiBAC9ACNAMMMMAAAwww0HMDIvSqD+uGGOvCAAMMMMAAAwwwkLoBAdrA2fOBM/WbyPX7QcAAAwwwwEA5BkToctaRR+vIAAMMMMAAAwwwEJMBAVqAFqAZYIABBhhggIFoDIjQhqWYhiXXwiMDDDDAAAMMMNC5AQHawBnNwOmG7vyGtobWkAEGGGCgDgZEaI7r4Nhn4JgBBhhggAEGGPiLAQFagBagGWCAAQYYYICB6AyI0AY2AxsDDDDAAAMMMMBAPQwI0AbO6AZOD5d6PFzso3cPAuMAACAASURBVH1kgAEGGOjUgAjNUKeG/H6GGGCAAQYYYICB3hsQoAVoAZoBBhhggAEGGIjWgAjd+4HB0GYPGGCAAQYYYIABBjoxIEAbOKMdODuB7fd6MDLAAAMMMFAfAyJ0ffbSfWkvGWCAAQYYYICB5hkQoAVoAZoBBhhggAEGGIjegAjdvEHFcGrPGWCAAQYYYICBehgQoA2c0Q+cHjb1eNjYR/vIAAMMMNCpARGaoU4N+f0MMcAAAwwwwAAD1RsQoAVoAZoBBhhggAEGGEjGgAhd/cBgSLPmDDDAAAMMMMAAA50YEKANnMkMnJ1A93s9KBlggAEGGKiPARG6PnvpvrSXDDDAAAMMMMBA/Q0I0AK0AM0AAwwwwAADDCRnQISu/6BiGLXHTTEwb968cNFFF4XJkye/+tfy/7787zXl8/uc7nUGGGCg/gYEaAOngw0DDDDAAAMMMJCkARG6/sOKgdQe193AbbfdFiZOnLjKv5b/s7p/fp/PPc4AAww0w4AAbeB0qGGAAQYYYIABBpI1IEI3Y2gxnNrnOhp46L++u8rwvHKQfvjhh5N9Ptdxz3wmzyIGGGCgmAEB2sDpQMMAAwwwwAADDCRtQIQuNggYoKwbA70zsHTRj8MxX954jQH6uOOOS/r5zFjvjFl7a88AAzEZEKANnA40DDDAAAMMMMBA8gZEaENWTEOWa+FxNAPLXvp5aPWPX2N8XvFN6NFeyz9jjQEGGGAgBQMCtIEz+YEzhRvNNfqBwAADDDDAQPcNiNDdX2OOrTEDHRpY9kJoTVkvtPrGCNBmcbM4Awww0BgDAjTsjcHusNzhYdm94l5hgAEGGEjAgAjt570zHwMxG2hPf9+r8Xl5gN579w+sMULvs88+fvYk8LMnZnOuzTORAQZiMCBA+2HmQMMAAwwwwAADDNTKgAht0Iph0HINHL7ZwMCsrV6Lz8sD9KVnvmONAfoHP/hBrZ7Pb14T/9t9wgADDDTDgABt4HSgYYABBhhggAEGamdAhG7GMGNotc+pGFjy6CffEJ+XB+jlf33l8+9bbYQ+4ogjavdsTmW/XKdnCwMMMFCuAQHawOlQwwADDDDAAAMM1NKACF3u4GAQs54MFDMwNO+Lq4zPKyL0mcdv+JYIfdZJHw7/s+zFWj6bOSrmyLpZNwYYSNmAAG3gdKhhgAEGGGCAAQZqa0CENqylPKy59vT9Dj91/KjxeUWEfva3Y8ODN0149a9nfzsuLHv5jto+l7lO37U9tIcMMJDXgABt4HSwYYABBhhggAEGam1AhDYk5R2S/HpmyjAw/Kd/Cq2+sZkC9IoQvfw/h545rdbP5DLW1mu4RxlggIG0DAjQBk6HGwYYYIABBhhgoPYGROi0hhRDpf1K3cCyRT8Orf5xuePz8JPH1P55nPreun7PJwYYYCC/AQHawOmAwwADDDDAAAMMNMKACJ1/WDBgWTMG8hsYGXwktKa8LXd8HnziwEY8i5nKb8qaWTMGGEjdgABt4HTIYYABBhhggAEGGmNAhDbApT7Auf74DbenbZg7Pg/M2akxz2GG4zdsj+wRAwyUbUCANnA66DDAAAMMMMAAA40yIEIbqsoeqrweUysMtGdulj8+z9y8Uc/gFWvlP903DDDAQHMMCNAGTocdBhhggAEGGGCgcQZE6OYMPIZbe12VgYHZ2+eOz+1p72rc87eq/fA+7n0GGGAgHgMCtIHTgYcBBhhggAEGGGikARE6nqHEgGgvUjcw+Pi+ueNza8q64ZXhxxr5/E19v12/ZxYDDDCQz4AAbeB04GGAAQYYYIABBhprQITONzwYtqwXA281MLTgyPzxuX9cWLbo+sY+ezl6qyNrYk0YYKDOBgRoA6dDDwMMMMAAAwww0GgDIrSBr84Dn8/WXd/Dz5ySPz73jQ3DC89q9HOXy+66tL7WlwEGYjMgQBs4HXwYYIABBhhggIHGGxChDWqxDWquJ36TwwvPCa2+tXIH6KGnT2z8M5fv+H3bI3vEAANlGhCgDZwOPwwwwAADDDDAAAOvvBJEaINWmYOW16q3p2Uv/TS0+sfnj8/zD/W89TOXAQYYYKBxBgRo6BuH3jBQ72HA/tpfBhhggIFODIjQ/HTix+9tiJ/hJ8Lyf4Fgq29Mrr+WzN3D7GX+ZoABBhhopAEBGvxGwjccNGQ4cH+7vxlggAEGChgQoZ0TnBUZGM1Ae9q7coXn5aF64JFtPI8LPI9H2wf/zH3KAAMMpGNAgPZD0EGIAQYYYIABBhhg4E0GROh0BhrDp72q0kB75ma543N7xvs9Y9/0jK1yz7yXZwQDDDDQewMCtB+EDkMMMMAAAwwwwAADqzAgQvd+WDEw2oOYDAzM/nj++Dx1A8/XVTxfY9pX1+I5wwADDHTfgADth6EDEQMMMMAAAwwwwMBqDIjQ3R9IDH3WOAUDSx7bK3d8bk1ZJyxr/8HzdTXP1xT23TV6PjHAAAPlGBCg/TB0IGKAAQYYYIABBhgYxYAIXc7gYYCzjqkaGJo/OX987lsrLH3+Cs/WUZ6tqXpw3Z5lDDDAQH4DArQfiA5FDDDAAAMMMMAAA2swIELnHzQMZ9asDgaGnz6pQHweG4YXnuW5uobnah18+AyecwwwwEA2AwK0H4oORgwwwAADDDDAAAMZDIjQ2QYMg5h1qouB4YXfDK2+sbkD9PDTJ3imZnim1sWJz+GZxwADDKzZgADtB6PDEQMMMMAAAwwwwEBGAyL0mgcMQ5g1qoOB5X98Rqt/XO74PDT/S56nGZ+ndXDiM3jeMcAAA9kMCNB+ODogMcAAAwwwwAADDOQwIEJnGzQMZNYpVQPLWr8JrSkTcsfnJXP38CzN8SxN1Yfr9mxjgAEG8hsQoP2AdEhigAEGGGCAAQYYyGlAhM4/eBjWrFkaBoZCe+r6uePzwOxtPUdzPkfT8OC+tU8MMMBAGQYEaD8kHZQYYIABBhhggAEGChgQoQ1kZQxkXiMuR+3pG+WOz+0ZH/QMLfAMZT8u+/bDfjDAQDcNCNB+UDosMcAAAwwwwAADDBQ0IEIb1ro5rHntan0NzNoyf3yetqHnZ8HnJ9/V+rbe1psBBnppQID2w9KBiQEGGGCAAQYYYKADAyK0ga6XA533LsffwJxP5I7PrSnrhpElszw/O3h+8luOX+toHRlgIHYDArQflg5MDDDAAAMMMMAAAx0aEKENfrEPfq5v9UYHH98vf3zuHx+WLbrBs7PDZyeXq3dpbawNAwzUyYAA7QemQxMDDDDAAAMMMMBACQZEaINinQbFpnyWoQWH54/PfWuF4We/7blZwnOzKc58Tj8fGGCg6QYEaD80HZwYYIABBhhggAEGSjIgQhswmz5gpvT5h58+pUB8HhOG/nS6Z2ZJz8yUvLhWz3cGGGCguAEB2g9OhycGGGCAAQYYYICBEg2I0MWHE4OdtavKwPCz54RW39jcAXroyWM8L0t8Xla1397Hs4UBBhjorQEB2g9PBygGGGCAAQYYYICBkg2I0L0dcgyZ1n80A0v//N3Q6h+XOz4PPnGgZ2XJz8rR9sk/cx8zwAAD9TEgQPsB6hDFAAMMMMAAAwww0AUDInR9hiYDcH32ctn/vTu0+ifkjs8Dj/6152QXnpPurfrcW/bSXjLAwGgGBGg/RB2kGGCAAQYYYIABBrpkQIQ2jI02jPlnFfsY+lNoTVkvf3x+5COekV16RroHKr4H7KN7mQEGemRAgO7RwvtB6wctAwwwwAADDDDQDAMidDP22f0c/z63p707d3xuz9hErDAzM8AAAwww0KEBAbrDBXTQjP+gaY/sEQMMMMAAAwz02oAIzWCvDTb9/dszN80fn6e9U3AwLzPAAAMMMFCCAQG6hEVs+mHO5zdQMcAAAwwwwAADazYgQq95jTiyRt0wMPDINrnjc2vKumFkcIboYF5mgAEGGGCgBAMCdAmL2I1Dktd0+GaAAQYYYIABBupnQISu3566T+Pe04FHd80fn/vHh2Uv3SQ4mJUZYIABBhgoyYAAXdJCOnjGffC0P/aHAQYYYIABBmIxIEKzGIvFul/H4BMHFojP48LS5y4UHMzJDDDAAAMMlGhAgC5xMet+gPP5DEsMMMAAAwwwwEA5BkToctaRR+u4OgNDC47KH5/7xoThhWcJDmZkBhhggAEGSjYgQJe8oKs7APn7DscMMMAAAwwwwAADKxsQoXlY2YP/Xp6H4T+dViw+P32C4GA+ZoABBhhgoAsGBOguLKrDY3mHR2tpLRlggAEGGGCgzgZEaL7r7LsXn23pc+eFVt/Y3AF6aP4hgoPZmAEGGGCAgS4ZEKC7tLC9OGx5TwMMAwwwwAADDDCQngEROr09c5/FuWdL//zd0Ooflzs+L3lsL8HBXMwAAwwwwEAXDQjQXVxcB9M4D6b2xb4wwAADDDDAQGwGRGgmYzOZ2vUse/nfQ6t/7dzxeWDODoKDmZgBBhhggIEuGxCgu7zAqR3cXK/hhwEGGGCAAQYY6I0BEbo36857+us+smRGaE1ZN398nrWl4GAeZoABBhhgoAIDAnQFi+xQm/6h1h7aQwYYYIABBhiowoAIzVkVzur2Hu2pG+SOz+3pGwsOZmEGGGCAAQYqMiBAV7TQdTvk+TyGIwYYYIABBhhgoDsGROjurCuv9VzX9vSN8sfnqRu8Ghx+85vfCA/mYQYYYIABBiowIEBXsMgOu/U87NpX+8oAAwwwwAAD3TIgQrPVLVt1et2BmRNzx+flf1THsiVTw69//euw5ZZbhu985zvCg5mYAQYYYICBLhsQoLu8wHU64PksBiEGGGCAAQYYYKA6AyJ0dWvNdXprPTB7u/zxuX/tsOzlm8Mvf/nLMHHixNf+uuiii4QHczEDDDDAAANdNCBAd3FxHWTTO8jaM3vGAAMMMMAAAzEZEKF5jMljLNeyZO5uBeLzuLD0z98N99xzz2vheeUIfckllwgPZmMGGGCAAQa6ZECA7tLCxnI4cx2GFgYYYIABBhhgIG0DInTa++f+K3f/Bp84IH987hsbhp89L/zHf/zHKuPzihD9ve99T3gwHzPAAAMMMNAFAwJ0FxbVIbPcQ6b1tJ4MMMAAAwww0HQDIrR7oOn3wPLPP7Tg8ALxeUwYfubr4Y477hg1Pq+I0FdccYXwYEZmgAEGGGCgZAMCdMkL6mBoOGCAAQYYYIABBhjohgERmqtuuErlNYef+cdC8XlowVHhZz/7Wab4vCJC//CHPxQezMkMMMAAAwyUaECALnExUzm8uU7DCwMMMMAAAwwwkKYBETrNfXO/dbZvwwvPLRSfB5/4bLjllltyxecVEfqaa64RHszKDDDAAAMMlGRAgC5pIR0qOztUWj/rxwADDDDAAAMMZDMgQmdbJ57qsU5L//wvodU3LneAXjJ39/CTn/ykUHw+8MADw8KFC0UHszIDDDDAAAMlGRCgS1pIB9x6HHDto31kgAEGGGCAgRQMiNCcpuC002tc+sKVodW/du74PDD74+Hf/u3fCsXnSZMmheeff15wMCczwAADDDBQogEBusTF7PSA5fcbJBhggAEGGGCAAQayGhChWclqJcVft+zlO0Krf0L++Dxri/DjH/+4UHw++OCDw6JFiwQHMzIDDDDAAAMlGxCgS17QFA93rtnwwgADDDDAAAMMpGlAhE5z39xvo+/byJIZoTVl3dzxuT1j4/CjH/2oUHw+9NBDw+LFiwUH8zEDDDDAAANdMCBAd2FRHShHP1BaH+vDAAMMMMAAAwyUZ0CELm8tuYxhLYdCe+oG+ePztA3DlVdeWSg+H3bYYWFgYEBwMBszwAADDDDQJQMCdJcW1uE1hsOra+CQAQYYYIABBpphQIRuxj434X5uT39v7vjcmvL28P3LvlUoPh955JFhaGhIcDAXM8AAAwww0EUDAnQXF7cJB0Sf0bDDAAMMMMAAAwzEYUCEjmMf3A/F96E9c9P88bl/QvjuRScUis9HH310GBkZERzMxAwwwAADDHTZgADd5QV2AC1+ALV21o4BBhhggAEGGMhnQITOt158xbNeA49sVSA+rx0uPm9yofh87LHHig1mYQYYYIABBioyIEBXtNAOt/Ecbu2FvWCAAQYYYICBOhsQoflOzffAnB0KxOdx4TvfPLhQfD7++OMFB3MwAwwwwAADFRoQoCtc7NQOgq7X8MIAAwwwwAADDKRpQIROc9+aeL8tmbt7/vjcNyZ868zPForPJ554ouBgBmaAAQYYYKBiAwJ0xQvexEOlz2wAYoABBhhggAEGqjcgQle/5pznW/PBJ/YvFJ+/+fV9CsXnU045RXAw/zLAAAMMMNADAwJ0DxbdwTTfwdR6WS8GGGCAAQYYYKCYARG62Lrx1v11G5r/5ULx+cxTdisUn0877TTBwezLAAMMMMBAjwwI0D1aeIfa7h9qrbE1ZoABBhhggAEGXgkitPsgtvtg+Km/LxSfTz/xE4Xi8xlnnCE4mHsZYIABBhjooQEBuoeLH9tB0PUYThhggAEGGGCAgXoaEKHrua8p3q/DfzqjUHw+9e8/Xig+n3XWWYKDmZcBBhhggIEeGxCge7wBKR4aXbMBhgEGGGCAAQYYSM+ACJ3entXtPht+7sLQ6hubO0CffMxHC8Xnc845R3Aw7zLAAAMMMBCBAQE6gk2o28HS5zHcMMAAAwwwwAADcRoQoePclybcL0ufvzy0+sfnjs8nfHXLQvH5vPPOExzMugwwwAADDERiQICOZCOacOj0GQ08DDDAAAMMMMBA7w2I0L3fg6bdB0sXXRta/Wvnjs/HHb55ofh8wQUXCA7mXAYYYIABBiIyIEBHtBlNO4j6vIYfBhhggAEGGGCgNwZE6N6sexO9L3vpp6HVPyF3fD5m8qaF4vPFF18sOJhxGWCAAQYYiMyAAB3ZhjTxUOozG4AYYIABBhhggIHqDYjQ1a9505wva/1XaE15W674vPiPY8JRX/pAofh86aWXCg7mWwYYYIABBiI0IEBHuClNO5j6vIYfBhhggAEGGGCgNwZE6N6seyO8Dz8RWlPWyxWfX/rvseHwgzcpFJ8vv/xywcFsywADDDDAQKQGBOhIN6YRh1Jr78HIAAMMMMAAAwz03IAILUKXP3ssC+2p78wVn5///dgwedL7C8XnH/zgBz2/j8pfQy6tKQMMMMBAfQwI0IYehzUGGGCAAQYYYICBhhsQoesz4MUwrLenvzdXfH72wbHhkM8Wi89XX32151fDn18xmHcNnqEMMMDA6AYEaD+sHdgYYIABBhhggAEGGAgi9OiDk8Ey2/q0Z2ySKz4/88Ba4Qv7F4vP1157rWeXZxcDDDDAAAMJGBCgE9gkh91sh13rZJ0YYIABBhhggIHODIjQna1f0/0NzJyYKz4v+PW48Ln9isXn66+/XnAwyzLAAAMMMJCIAQE6kY1q+mHW5zcMMcAAAwwwwAAD1RgQoatZ57p5Hnjko7ni8xO/XCscsE+xf+HgjTfeKDiYYxlggAEGGEjIgACd0GbV7ZDq8xhuGGCAAQYYYICBOA2I0HHuS6z3y8CcHXLF57n/Z1z49J7F4vPNN98sOJhhGWCAAQYYSMyAAJ3YhsV66HRdhhQGGGCAAQYYYKBeBkToeu1nt+7PgUc/mSs+z/7PcWGfPYrF51tvvVVwML8ywAADDDCQoAEBOsFN69bh0esaMhhggAEGGGCAAQZWNiBC87Cyhzf/9yWP7Z0rPs+4c3zYc7cPhIkTJ+b+6/bbbxcczK4MMMAAAwwkakCATnTj3nz4878NBwwwwAADDDDAAAPdMCBCc7UqV4NPHJQrPk+9Y3zY/a8/mDs8L4/Vd955p+BgbmWAAQYYYCBhAwJ0wpu3qoOgv2dAYIABBhhggAEGGCjbgAjN1MqmhuYfmis+9902Puz6v4vF57vvvltwMLMywAADDDCQuAEBOvENXPkg6L8bDBhggAEGGGCAAQa6ZUCEZmu5raEn/zZXfH7o1rXDzjtuWuibz/fee6/gYF5lgAEGGGCgBgYE6BpsYreGDK9ryGCAAQYYYIABBhhY2YAI3WwPw0+flCs+/+7mCWHH7TfLHZ+32GKLcN999wkOZlUGGGCAAQZqYkCArslGrjwY+O/NHgzsv/1ngAEGGGCAgW4aEKGb6Wv4T/+UKz7/5idrh+0/lj8+b7XVVuGBBx4QHMypDDDAAAMM1MiAAF2jzezmoOG1mzlo2Hf7zgADDDDAAAOrMiBCN8vF8LPnh1bf2MwB+v4bJoSPbfOh3N983mabbcJvf/tbwcGMygADDDDAQM0MCNA129BVDQj+XrMGBPttvxlggAEGGGCgCgMidDOcLX3+stDqH5c5Pv/yX9cJH/3I5rnj83bbbRceeughwcF8ygADDDDAQA0NCNA13NQqBg7v0YyBwz7bZwYYYIABBhgYzYAIXW8fS1+8OrT6184cn++5dp3w4Q/nj8877LBD+OMf/yg4mE0ZYIABBhioqQEBuqYbO9qg4J/Ve1Cwv/aXAQYYYIABBqo0IELX09uyl/4ttPonZI7Pd/1ondzfep44cWLYaaedwtSpUwUHcykDDDDAAAM1NiBA13hzqxw8vFc9Bw/7al8ZYIABBhhgIIsBEbpeTpa+9NPQ6l8nc3z+xVVvKxSfd9lllzBjxgzBwUzKAAMMMMBAzQ0I0DXf4CwDg19Tr4HBftpPBhhggAEGGOiFARG6Hu6WvfTz0JqSPT7//AfF4vNuu+0WZs+eLTiYRxlggAEGGGiAAQG6AZvciwHEe9ZjALGP9pEBBhhggAEG8hgQodP2suz/3pMrPt96+bqFvvn8qU99KsydO1dwMIsywAADDDDQEAMCdEM2Os/g4NemPTjYP/vHAAMMMMAAA700IEKn6W/ZwH+H1pR1M/+xGzdf+vZC8XnvvfcO8+bNExzMoQwwwAADDDTIgADdoM3u5SDivdMcROybfWOAAQYYYICBIgZE6MTcDM8NranrZY7PN15S7JvP++23X3jyyScFBzMoAwwwwAADDTMgQDdsw4sMEH5PYgME036QMcAAAwwwwEAEBkToRM6Qy14I7anvyByfr7+o2DefDzjggPDMM8+4NyO4N813idybrHheMMBAjQwI0DXaTAcJBwkGGGCAAQYYYICBmAyI0LF7/J/QnrZh5vj84/PXK/THbhx00EHhueeeExLMngwwwAADDDTUgADd0I2PaTBxLbEPJq6PUQYYYIABBhgobkCELr523XbXnv6ezPH56m8Xi89f+MIXwgsvvCA4mDsZYIABBhhosAEBusGb3+0DrdePd9iwN/aGAQYYYIABBqo0IELH5609faPM8fnKc9Yv9M3nQw45JLz88suCg5mTAQYYYICBhhsQoBsOoMrBw3vFN3jYE3vCAAMMMMAAA1UZEKHjsdaesUnm+Pz9f35Hofg8efLk0Gq1BAfzJgMMMMAAAwwEARoCDwIGGGCAAQYYYIABBioxIEL3PkK3Z26WOT5fdmax+Hz44YeHwcHBSkxV9X+geJ/e27UH9oABBhhI14AAbdhwMGSAAQYYYIABBhhgoDIDInTvhseBmVtkjs//8o1i8fmoo44KS5curcyTGNE7T9be2jPAAAMMZDUgQBs2HA4ZYIABBhhggAEGGKjUgAhd/cA6MOvDmePzhV/foNAfu3HMMcdU6ijr0OvXVe/NmltzBhhggIGVDQjQhg2HRAYYYIABBhhggAEGKjcgQlc3mA488tHM8fn8rxWLz8cdd1zlhlYebP336jxZa2vNAAMMMJDXgABt2HBQZIABBhhggAEGGGCgJwZE6O4PsAOzt8scn889+Z2Fvvl8wgkn9MRP3uHXr+++N2tsjRlggAEGVmVAgDZsOCwywAADDDDAAAMMMNAzAyJ09wbVgTk7ZI7PZ5+4YaH4fPLJJ/fMzqoGXH+ve56srbVlgAEGGChqQIA2bDgwMsAAAwwwwAADDDDQUwMidPkD7cCcnTLH5zOPLxafTz311J66KToE+33le7Om1pQBBhhgYDQDArRhw6GRAQYYYIABBhhggIGeGxChyxtcBx7968zx+RvHvqvQN59PP/30npsZbdD1z8rzZC2tJQMMMMBApwYEaMOGgyMDDDDAAAMMMMAAA1EYEKE7H3CXzN09c3w+9Zh3F4rPZ555ZhReOh2G/f7OvVlDa8gAAwwwkMWAAG3YcHhkgAEGGGCAAQYYYCAaAyJ08UF2yWN/kzk+/+NXi8Xns88+OxorWQZev6a4J2tn7RhggAEGyjIgQBs2HCAZYIABBhhggAEGGIjKgAidf+Bd8tjemePziUe+p9A3n88999yonJQ1FHud/N6smTVjgAEGGMhjQIA2bDhEMsAAAwwwwAADDDAQnQEROvtgO/j4fpnj899/5b2F4vP5558fnZE8g69fm92TtbJWDDDAAANlGxCgDRsOkgwwwAADDDDAAAMMRGlAhF7zADz4xP6Z4/PffblYfL7wwguj9FH2cOz11uzNGlkjBhhggIEiBgRow4bDJAMMMMAAAwwwwAAD0RoQoVc/6A4+8dnM8fnoL72v0DefL7nkkmhtFBmA/Z7Ve7I21oYBBhhgoFsGBGjDhgMlAwwwwAADDDDAAANRGxCh3zoQD877XKb4/PLDY8MRBxeLz5dddlnULro1JHvdt3qzJtaEAQYYYKATAwK0YcOhkgEGGGCAAQYYYICB6A2I0K8PvoPzvpApPr/4hzHhsEnF4vMVV1wRvYlOBmG/93VP1sJaMMAAAwx024AAbdhwsGSAAQYYYIABBhhgIAkDIvQrYWj+IZni859/NzYcetBGhf7YjauuuioJD90elr2+IMMAAwwwwEA5BgRow4bDJQMMMMAAAwwwwAADyRhocoQemn9opvj8p9+sFb54QLH4fM011yRjQRQoJwpYR+vIAAMMMNBtAwK0YcMBkwEGGGCAAQYYYICBpAw0MUIPzZ+cKT4/df9aYdKnNy70d0g23gAAIABJREFUzefl69rtAdTrixwMMMAAAww0z4AAbdhwyGSAAQYYYIABBhhgIDkDTYrQQwsOyxSf5983Lnx23/cXis833HBDcgYEjOYFDHtuzxlggIE0DQjQhg0HTQYYYIABBhhggAEGkjTQhAg9tODwTPH58XvXCvvvVSw+33TTTUnuvwiRZoSwb/aNAQYYaJ4BAdqw4bDJAAMMMMAAAwwwwECyBuocoYcWHJEpPs+5e1zY9282KfTN51tuuSXZvRcwmhcw7Lk9Z4ABBtI0IEAbNhw4GWCAAQYYYIABBhhI2kAdI/TQgqMyxedZd40Pe+3+gULx+bbbbkt630WINCOEfbNvDDDAQPMMCNCGDYdOBhhggAEGGGCAAQaSN1CnCJ01Pk//xfjwqV2Lxec77rgj+T0XMJoXMOy5PWeAAQbSNCBAGzYcPBlggAEGGGCAAQYYqIWBOkTorPG5/+fjw267fLDQN5/vuuuuWuy3CJFmhLBv9o0BBhhongEB2rDh8MkAAwwwwAADDDDAQG0MpByhh578aqY/duPhn60ddvnEpoXi8z333FObvRYwmhcw7Lk9Z4ABBtI0IEAbNhxAGWCAAQYYYIABBhiolYEUI3TWbz7/4Za1w05/VSw+/+pXv6rVPosQaUYI+2bfGGCAgeYZEKANGw6hDDDAAAMMMMAAAwzUzkBKETrrN59/+9MJYYePb5b7m89bbrlluP/++2u3xwJG8wKGPbfnDDDAQJoGBGjDhoMoAwwwwAADDDDAAAO1NJBChB5akO2P3fivGyeE7bb9UO74vPXWW4cHH3ywlvsrQqQZIeybfWOAAQaaZ0CANmw4jDLAAAMMMMAAAwwwUFsDMUfooQVHZvozn++7fkLY5qP54/O2224bfv/739d2bwWM5gUMe27PGWCAgTQNCNCGDQdSBhhggAEGGGCAAQZqbSDGCD204IhM8fne69YJH9lq89zffN5+++3Dww8/XOt9FSHSjBD2zb4xwAADzTMgQBs2HEoZYIABBhhggAEGGKi9gZgi9NCCwzPF5/+8Zp2w5RYTc8fnHXfcMfT399d+TwWM5gUMe27PGWCAgTQNCNCGDQdTBhhggAEGGGCAAQYaYSCGCD204CuZ4vOdP1wnd3ieOHFi2HnnncO0adMasZ8iRJoRwr7ZNwYYYKB5BgRow4bDKQMMMMAAAwwwwAADjTHQywg9NH9ypvh8x5VvKxSfd9111zBr1qzG7KWA0byAYc/tOQMMMJCmAQHasOGAygADDDDAAAMMMMBAowz0IkIPzf9ypvj8s++vWyg+77HHHmHOnDmN2kcRIs0IYd/sGwMMMNA8AwK0YcMhlQEGGGCAAQYYYICBxhmoMkIPzT8kU3y+5XvF4vOee+4ZHn/88cbtoYDRvIBhz+05AwwwkKYBAdqw4aDKAAMMMMAAAwwwwEAjDVQRoYfmHZwpPt/03WLxed999w3z589v5P6JEGlGCPtm3xhggIHmGRCgDRsOqwwwwAADDDDAAAMMNNZANyP04LxJmeLzDRe/vdAfu/GZz3wmPP30043dOwGjeQHDnttzBhhgIE0DArRhw4GVAQYYYIABBhhggIFGG+hGhB584rOZ4vN1FxaLzwceeGBYuHBho/dNhEgzQtg3+8YAAww0z4AAbdhwaGWAAQYYYIABBhhgoPEGyozQg0/snyk+X/Pt9Qp983nSpEnh+eefb/yeCRjNCxj23J4zwAADaRoQoA0bDq4MMMAAAwwwwAADDDDwyiuhSIR+4YUXwoMPPhjuu+++0NfXF16atW+m+PzDc9cvFJ8PPvjgsGjRIvvlnmWAAQYYYICBZAwI0LAmg9X/y5Xm/8tl3+wbAwwwwAADDKRkIE+E3mabbVYZkSd/7n3h1svXXW2IvuKbxeLzoYceGhYvXuz8boZjgAEGGGCAgaQMCNDAJgU2peHFtRq2GWCAAQYYYICBNA3kidATJ05cZYRe/vdPPurdYeFvxr4hRH/vrHes9teP9lqHHXZYGBgYcHY3vzHAAAMMMMBAcgYEaGiTQ2uQS3OQs2/2jQEGGGCAAQZSMlBWhP78ZzYOf3pgrVcj9Hf/qVh8PvLII8PQ0JBzu9mNAQYYYIABBpI0IECDmyTclIYX12rYZoABBhhggAEG0jRQVoQ+6cj3hItPLxafjz766DAyMuLMbm5jgAEGGGCAgWQNCNDwJovXIJfmIGff7BsDDDDAAAMMpGSgrAg92h+vsbp/duyxxzqrm9cYYIABBhhgIHkDAjTEySNOaYBxrQZuBhhggAEGGGAgPQM/+tGPCv25zasLy1n+/vHHH++cblZjgAEGGGCAgVoYEKBBrgVkg1x6g5w9s2cMMMAAAwwwkIqBBx54oNIAfdJJJzmjm9MYYIABBhhgoDYGBGiYa4M5lQHGdRq2GWCAAQYYYICBtAxcddVVlQXoU045xfncjMYAAwwwwAADtTIgQANdK9CGubSGOftlvxhggAEGGGAgBQPnn39+JQH6tNNOczY3nzHAAAMMMMBA7QwI0FDXDnUKQ4xrNGwzwAADDDDAAAPpGLjkkku6HqDPOOMM53KzGQMMMMAAAwzU0oAADXYtYRvo0hno7JW9YoABBhhggIHYDdx+9aZdDdBnnXWWM7m5jAEGGGCAAQZqa0CAhru2uGMfZFyfYZsBBhhggAEGGIjfQHvGJmH23eO6FqDPOecc53EzGQMMMMAAAwzU2oAADXitgRvq4h/q7JE9YoABBhhggIFYDbSnbxRafWNe/evvJr+39Ah93nnnOYubxxhggAEGGGCg9gYEaMhrjzzWgcZ1GbYZYIABBhhggIFYDQyF9rR3vxafl0foGXeOD1t9ePPSIvQFF1zgHG4WY4ABBhhggIFGGBCgQW8EdMNdrMOd62KTAQYYYIABBiIzsGxhaE/b8A3xecW3oH98/nqlBOhddtklvPjii87hZjEGGGCAAQYYaIQBARr0RkA32EU22Lnv3HcMMMAAAwwwEKGBkeGnQnvqBquMzysi9LXfWS9sueXEjkP0pEmTROgIDZgbzA0MMMAAAwyUb0CAdugx/DDAAAMMMMAAAwww0HgDI4Oz1hifl0folx4aGw4+YOOOA/TEiRODCF3+gCsaWFMGGGCAAQbiMyBAGzYaP2x4MMX3YLIn9oQBBhhggAEGqjQwMvDfoT31HaN+83l5fH7+92PD5M+9r5T4vDxAi9CcV+nce/HGAAMMMNArAwK0AC1AM8AAAwwwwAADDDDQWAMji38V2lPXX2N8fvbBseGQAzcqNT6L0EJAr0KA92WPAQYYYKBKAwK0YaOxw0aVN5r38mBngAEGGGCAAQbiM7Ds5Z+HVob4/MwDa4Uv7F/OH7uxIjq/+T/9cRzx+XDP2hMGGGCAAQbKMSBAC9ACNAMMMMAAAwwwwAADjTOwdNENoTVl3TV+83nBr8eFz+1XLD5ff/314brrrsv8rWkRupwhVyywjgwwwAADDMRlQIA2bDRu2PAQiushZD/sBwMMMMAAAwxUbWDpC1eG1pS3rTE+P/HLtcIB+7w/c0Be+VvNN95442vnbBGa8aqNez/mGGCAAQZiMiBAC9CvHYxjgulaPCgZYIABBhhggAEGumFg+M8XhVb/hDXG57n/Z1z49J6bFIrPN99881vO2CI0z93w7DW5YoABBhhIwYAALUC/5XCcAlzX6AHLAAMMMMAAAwwwkNfA8LNnh1b/WmuMz7P/c1zYZ49i8fnWW29d7flahGY2r1m/nhkGGGCAgToYEKAF6NUekOsA3GfwoGaAAQYYYIABBhhYbmD4ma+tMTy3+saEGXeOD3vu9oFC33y+/fbb13i2FqF59ExigAEGGGCgaQYEaAF6jYfkpt0UPq8fBAwwwAADDDDAQL0MDD11bKb4PPWO8WH3v/5gofh85513Zj5Xi9D18uV5YT8ZYIABBhgY3YAALUBnPii7mUa/mayP9WGAAQYYYIABBuIzMDR/cqb43Hfb+LDr/y4Wn+++++7cZ2oROj4r7l97wgADDDDAQHcMCNACdO7DspuxOzejdbWuDDDAAAMMMMBAuQYG530uU3x+6Na1w847blrom8/33ntv4fO0CF3ufrt/rCcDDDDAAANxGhCgBejCB2Y3dZw3tX2xLwwwwAADDDDAwCthyWP7ZIrPv7t5Qthx+81yx+ctttgi3HfffR2fpUVo96v7lQEGGGCAgbobEKAF6I4PzXW/SXw+PwgYYIABBhhggIG0DAw8+slM8fk3P1k7bP+x/PF5q622Cg888EBp52gROi1fngf2iwEGGGCAgXwGBGgBurSDs5sv381nvawXAwwwwAADDDBQvoGBOTtkis/33zAhfGybD+X+5vM222wTfvvb35Z+hhahy7fg/rKmDDDAAAMMxGFAgBagSz88u7njuLntg31ggAEGGGCAgaYZGHhk60zx+Zf/uk7Y+iOb547P2223XXjooYe6dn4Wod2zTbtnfV7mGWCAgWYYEKAF6K4doD1EmvEQsc/2mQEGGGCAAQZiMDAwc/NM8fmea9cJH/5w/vi8ww47hD/+8Y9dPzuL0O6nGO4n18AhAwwwwECZBgRoAbrrh+gywXotD0AGGGCAAQYYYICBNxtoz3h/pvh814/Wyf2t54kTJ4addtopTJ06tbJzswjN+JuN+99MMMAAAwykbECAFqArO0infKO4dg96BhhggAEGGGAgQgMjg6E97d2Z4vMvrnpbofi8yy67hBkzZlR+ZhahI/Rmdqz8PvDcdR8wwAAD9TAgQDtEOEQwwAADDDDAAAMMMJCcgZHhBaE97V2Z4vPPrygWn3fbbbcwe/bsnq2NCF2PoVs8sY8MMMAAA003IEAbNnp2oG76zefz+wHEAAMMMMAAAwwUMzAy8MfQnrZhpvh86+XrFvrm86c+9akwd+7cnp+VRehiRtxb1o0BBhhggIF4DAjQAnTPD9UeCPE8EOyFvWCAAQYYYICB2A2MLL4ntKdukCk+33zp2wvF57333jvMmzcvmnOyCO2+jP2+dH2MMsAAAwyMZkCAFqCjOViPBtU/8yBjgAEGGGCAAQYYWLroxtCasl6m+HzjJcW++bzffvuFJ598MrozsgjNv2cgAwwwwAADqRoQoAXo6A7Xqd5MrtsPAgYYYIABBhhgoHsGlj7/vdCe8rZM8fn6i4p98/mAAw4IzzzzTLTnYxG6e77cu9aWAQYYYICB7hkQoAXoaA/Ybvzu3fjW1toywAADDDDAQEoGhp89O7T6x2WKzz8+f71Cf+zGQQcdFJ577rnoz8YitHs3pXvXtfLKAAMMMLDcgAAtQEd/yPaw8rBigAEGGGCAAQaaa2D46RMzhedW35hw9beLxecvfOEL4YUXXkjmXCxCN/d+8Cy09wwwwAADKRoQoAXoZA7aKd5grtkPBgYYYIABBhhgoLiBoQVfyRyfrzxn/ULffD7kkEPCyy+/nNyZWIQu7so9ae0YYIABBhio1oAALUAnd9j2kKj2IWG9rTcDDDDAAAMM9MLA4BOfzRyfv//P7ygUnydPnhxarVay52ER2r3Zi3vTe3LHAAMMMJDXgAAtQCd74M6L3a/3gGSAAQYYYIABBtIwsGTuHpnj82VnFovPhx9+eBgcHEz+LCxCp2Has8c+McAAAww02YAALUAnf+hu8g3ss/sBxgADDDDAAAN1MzAwZ4fM8flfvlEsPh911FFh6dKltTkHi9CeA3V7Dvg8TDPAAAP1MiBAC9C1OXh7ONXr4WQ/7ScDDDDAAAPNMzAwa6vM8fnCr29Q6I/dOOaYY2p5/hWhm3e/eEbacwYYYICBVAwI0AJ0LQ/gqdyArtMPCwYYYIABBhhg4C8G2jM+mDk+n/+1YvH5uOOOq/XZV4T2PPE8YYABBhhgIEYDArQAXetDeIw3nWvyw4ABBhhggAEGGFjJwEg7tKe/N3N8Pvfkdxb65vMJJ5zQiHOvCL2SLbNeI8x7njLPAAMMxG9AgHYocShhgAEGGGCAAQYYYKAnBkYGZ4f29Hdnjs9nn7hhofh88skn9+Tz9WogFqHjH8R7ZcP7ssEAAwww0AsDArRho1GH8V7cZN7Tw50BBhhggAEGGHirgZHF94X2tA0zx+czjy8Wn0899dRGnndF6Leacx9aEwYYYIABBnpjQIAWoBt5IPfA6c0Dx7pbdwYYYIABBhhYbmDpohtDa+r6mePz6ce+q9A3n08//fRGn3VFaPebZy4DDDDAAAMxGBCgBehGH8pjuAldgx8GDDDAAAMMMNAkA8N//pfQnrJO5vh86jHvLhSfzzzzTOfcV14JIrTnS5OeLz4r7wwwwECcBgRoAdrBnAEGGGCAAQYYYICBSgwMP/P10Oobmzk+/+NXi8Xns88+u5LPk8qQK0LHOYyn4sd18sMAAwww0KkBAdqw4XDOAAMMMMAAAwwwwEDXDQwt+Grm8NzqGxNOPOI9hb75/K1vfavrn6XTIawXv1+EFg964c57cscAAwwwsNyAAG3YcEBngAEGGGCAAQYYYKCrBgafOChXfP77r7y3UHw+//zzu/o5Uh+iRWgRIHXDrp9hBhhgIE0DArRhwyGdAQYYYIABBhhggIGuGVgyd7dc8fnvvlwsPl944YVd+wx1GnZF6DQH9zoZ9FkYZIABBppnQIA2bDioM8AAAwwwwAADDDDQFQMDsz+WKz4f/aX3Ffrm8yWXXNKV66/rgCxCN2/wr6tln4tlBhhgIA0DArRhw2GdAQYYYIABBhhggIHSDQzM/FDm+Pzyw2PDEQcXi8+XXXZZ6dfehGFWhE5jYG+CRZ+RRQYYYKD+BgRow4YDOwMMMMAAAwwwwAAD5RkYWRLaMzbOHJ9f/MOYcNikYvH5iiuuKO+6G2hAhK7/wC/q2GMGGGCAgRgMCNANPGjGAM81eAAywAADDDDAAAP1MzAyOCu0p783c3z+8+/GhkMP2qjQH7tx1VVXic8lzDIidP3uQ89We8oAAwwwEJsBAbqEQ1tsm+p6PGgYYIABBhhggAEGqjYwsvju0J72zszx+U+/WSt88YBi8fmaa64Rn0ucY0Roz4uqnxfejzkGGGCgWQYE6BIPbm6eZt089tt+M8AAAwwwwAADfzGw9IUfhvaUt2eOz0/dv1aY9OmNC33zeXkste7l33sidPlryqk1ZYABBhhg4C8GBGgB2gGeAQYYYIABBhhggIHCBoaf/WZo9Y/PHJ/n3zcufHbf9xeKzzfccEPh6zQArjkCiNBrXiOOrBEDDDDAAAP5DQjQhg2HeAYYYIABBhhggAEGChkYeuqYzOG51TcmPHbvuLD/XsXi80033VToGg2J+YZEETrfevFlvRhggAEGGFizAQHasOEgzwADDDDAAAMMMMBAbgOD8w7KFZ/n3D0u7Ps3mxT65vO///u/574+w+Cah8HVrZEIXXztVrem/r41ZYABBhhosgEB2rDhMM8AAwwwwAADDDDAQC4DA49+Mld8nnXX+LDX7h8oFJ9vu+22XNfW5OGuzM8uQgslZXryWjwxwAADzTYgQBs2HOgZYIABBhhggAEGGMhsYOCRj+aKz9N/MT58atdi8fmOO+7IfF0G2/IHWxG6/DXl1JoywAADDDTRgABt2HCoZ4ABBhhggAEGGGAgk4H2jE1yxef+n48Pu+3ywULffL7rrrsyXVMTh7gqP7MILZRU6c178cYAAwzU04AAbdhwsGeAAQYYYIABBhhgYFQDI8NPhfb0jXLF54d/tnbY5RObForP99xzz6jXYzitdjgVoatdb76tNwMMMMBA3QwI0IYNh3sGGGCAAQYYYIABBlZrYGTxfaE97V254vMfblk77PRXxeLzr371q9VeS92GsZQ+jwgthqTk1bXyygADDMRlQIA2bDjgM8AAAwwwwAADDDCwSgNLX7wmtKeulys+P/jTCWGHj2+W+5vPW265Zbj//vtXeR2GyDiGSBE6jn1wP9gHBhhggIHUDAjQhg2HfAYYYIABBhhggAEG3mJg+Nlvhlb/2rni83/dOCFst+2HcsfnrbfeOjz44INvuYbUhqsmXK8ILXo0wbnPyDkDDDBQrgEB2rDhoM8AAwwwwAADDDDAwBsMDD15dK7w3OobE+67fkLYZuv88XnbbbcNv//979/w/oa+coe+stdThI57f8reb69nvxlggAEGOjUgQBs2HPYZYIABBhhggAEGGHjNwODjn8kdn++9bp3wka02z/3N5+233z48/PDDr713p8ON31/dgCxCV7fWXFtrBhhggIHUDQjQhg0HfgYYYIABBhhggAEGXjUwMOcTuePzf16zTthyi4m54/OOO+4Y+vv72UvYnggtiKQeRFw/wwwwwEA1BgTohA98bpJqbhLrbJ0ZYIABBhhgoAkGBmZukTs+3/nDdXKH54kTJ4add945TJ8+XXyuwSwiQns+NuH56DNyzgADDHRmQICuwaHPTdDZTWD9rB8DDDDAAAMMNNrAspdCe8b7c8fnO658W6H4vOuuu4ZZs2aJzzWaQ0Roz9BGP0NrdC/bR/cyAwx0y4AA7YeFwz8DDDDAAAMMMMBAQw2MtH8X2tPekzs+/+z76xaKz3vssUeYM2cObzX0JkKLFt2KFl6XLQYYYCB9AwJ0DQ9/bsz0b0x7aA8ZYIABBhhgoNsGli7619Ceun7u+HzL94rF5z333DM8/vjj4nON5w8R2nOr288tr88YAwwwkKYBAbrGB0A3ZZo3pX2zbwwwwAADDDDQbQPDz34ztPon5I7PN323WHzed999w/z588XnBsweIrTnV7efX16fMQYYYCA9AwJ0Aw6Bbsz0bkx7Zs8YYIABBhhgoFsGhhYclTs8t/rGhBsufnuhP3bjM5/5THj66afF5wbNHSK051e3nl9ely0GGGAgTQMCdIMOgm7SNG9S+2bfGGCAAQYYYKAsA0se26dQfL7uwmLx+cADDwwLFy4Unxs4c4jQnltlPbe8DksMMMBA+gYE6AYeBt246d+49tAeMsAAAwwwwEBeAwOzP14oPl/z7fUKffN50qRJ4fnnnxefGzxviNCeU3mfU349MwwwwEA9DQjQDT4QuqnreVPbV/vKAAMMMMAAA2820J65aaH4/MNz1y8Unw8++OCwaNEi8dmsEURoz6M3P4/8byYYYICB5hkQoB0KDQYMMMAAAwwwwAADNTUwMjgntKdvVCg+X/HNYvH50EMPDYsXL2aqpqaKRAMRunmhoYgTv4cTBhhgoL4GBGgHQ8MBAwwwwAADDDDAQA0NLHv556E97Z2F4vP3/vldhb75fNhhh4WBgQGeauip0yggQtc3KnRqw+9ngwEGGKi/AQHa4dCAwAADDDDAAAMMMFAzA8PPXRjaU9YpFJ+/e9ZGheLzkUceGYaGhliqmaUyo4AIXf/AUKYXr8ULAwwwUB8DArQDoiGBAQYYYIABBhhgoEYGhp46tlB4bvWNCRef8YFC8fnoo48OIyMjHNXIUbeGfhG6PjGhW0a8LiMMMMBA/QwI0A6JBgUGGGCAAQYYYICBmhgYfPzThePzBd/YrFB8PvbYY/mpiZ+qBn4Run5hoSo73ocdBhhgIE0DArTDooGBAQYYYIABBhhgoAYGBmZ/vHB8/vbXtyoUn48//nh2amCnF8O8CJ1mQOiFFe/JCgMMMJC+AQHagdHQwAADDDDAAAMMMJC4gfbMTQvH53NP+3ih+HzSSSdxk7ibXg/0InT6QaHXhrw/QwwwwEAaBgRoh0aDAwMMMMAAAwwwwECiBkYGZ4T29I0Kx+ezT921UHw+5ZRTmEnUTGyDugidRjiIzY3r4YYBBhhIy4AA7eBoeGCAAQYYYIABBhhI0MDSRT8J7WkbFIvP/WuHM0/dt1B8Pu2003hJ0EvMg7oInVZEiNmSa2OJAQYYiNOAAO3waIBggAEGGGCAAQYYSMzA8MJ/Dq3+CYXic3vq+uEbpx5cKD6fccYZrCRmJZVBXISOMxik4sd18sMAAwzEbUCAdoA0RDDAAAMMMMAAAwwkZGBo/uRC4bnVNya0p78vfP1rXy0Un8866yxOEnKS4iAuQscdD1I05ZqZYoABBuIwIEA7RBokGGCAAQYYYIABBhIxsGTubsXj84wPhq+dcnKh+HzOOecwkoiR1AdtETqOUJC6I9fPEQMMMBCXAQHaQdIwwQADDDDAAAMMMJCAgYGZmxeOzwOPbB1OOumkQvH5vPPO4yMBH3UatEXouKJBnWz5LGwxwAADvTEgQDtMGigYYIABBhhggAEGIjbwP0ufCu0ZmxSOz0se+5vwD//wD4Xi8wUXXMBGxDbqPESL0L0JBHU25bMxxQADDPTOgADtQGmoYIABBhhggAEGGIjUwLKXfxHa0zYsHJ+HFhwRjjvuuELx+eKLL+YiUhdNGaBF6N6FgqYY8zkZY4ABBqoxIEA7VBosGGCAAQYYYIABBiI0MPzcd0JrytuKxef+CWFo4bnhb//2bwvF50svvZSJCE00cUgWoasJA0205TOzxQADDFRnQIB2sDRcMMAAAwwwwAADDERmYGjBkcXCc9+Y0J72zrDkhZvCUUcdVSg+X3755TxE5qHpA7IIXV0gaLo1n581BhhgoDsGBGiHSwMGAwwwwAADDDDAQEQGlszdvXh8nrFxaL80NXzlK18pFJ+vvPJKFiKyYAh+fQgWoV9fCy6sBQMMMMBAagYEaAdMQwYDDDDAAAMMMMBAJAYGZk4sHp9nfigsXrw4fPnLXy4Un6+++moOInGQ2lBZ1fWK0IJLVda8D2sMMMBAuQYEaIdMgwYDDDDAAAMMMMBAjw2MDC8I7RmbFI7PA3N2Ci+99FL44he/WCg+X3vttQz02IBBN9ugK0JnWyeerBMDDDDAQEwGBGgHTcMGAwwwwAADDDDAQA8NLHv51tCetmHh+Dw47/PhhRdeCJ///OcLxefrr7/e/vdw/2MaDlO5FhFaVEnFqutklQEGGPgGJge5AAAgAElEQVSLAQHaYdPAwQADDDDAAAMMMNAjA8PPfjO0+icUi8/948PwM6e9tncLFy4M+++/f64IfeONN772+w1IhuSUDIjQvKbk1bXyygADTTcgQPdo2Gg6PJ/fw5cBBhhggAEGmm5gaP6XioXnvjGhPXX9sPTFt/6xGU8//XTYd999M0Xom2++WXw2CyRtQIT2c6TpP0d8fvcAAwykYkCAduhM+tCZyo3mOv1QYIABBhhggIGVDQzM2bF4fJ6+URgZ6FvtGW7BggVhr732GjVC33rrrav9/Stfp//ObewGRGhGYzfq+hhlgAEGXgkCtABt+GCAAQYYYIABBhio0EB75uaF4/PAzA9l2qvHH3887LHHHquM0Lfffnum1zAsGZhTMSBCs5qKVdfJKgMMNNWAAF3hsNFUZD63BywDDDDAAAMMMPBKGGk/FNrTNyoen+f8Va5w/Oijj4ZPfvKTb4jQd955Z67XsG/u3VQMiNCspmLVdbLKAANNNCBAC9CGEAYYYIABBhhggIEuG1j6/BWhPXW9wvF5cN7nC+3RrFmzws477/xqhL777rsLvUYThySfOc04IEKnuW/uN/vGAAMM1N+AAN3lYcNNVP+byB7bYwYYYIABBhgYzcDQU8eFVt/YYvG5f+0w/MzpHYXj6dOnh3vvvbej1xjt8/ln/MdkQITmMSaProVHBhhg4C8GBGgB2jDCAAMMMMAAAwww0CUDS+Z+qlh47hsT2lM3CEsXXW9vurQ3BsL6RgERur576761twwwwECaBgRoB1pDDQMMMMAAAwwwwEAXDLRnbVk8Pk9/fxgZnGVfurAvBtc0B9e8+yZCN2Of87rw67lggAEGemNAgHaoNdgwwAADDDDAAAMMlGhgZHBOaM94f+H4PDBrov0ocT8Mmr0ZNGNYdxG6uXsfgz/XwB8DDDDwugEB2uHWgMMAAwwwwAADDDBQkoGli/711T86o9U3plCAXjJ3V3tR0l4Y+l4f+pq8FiI0B03277PzzwADsRgQoB1wDTkMMMAAAwwwwAADJRgYfuYfQ6t/XKHwvDxYDy04wj6UsA+xDFquI56hX4SOZy/cF/aCAQYYaKYBAdoh16DDAAMMMMAAAwww0KGBJY/tVTg8t6esG4afu9AedLgHBtpmDrRZ912E5iOrFb+OFQYYYKB8AwK0g65hhwEGGGCAAQYYYKADA539ywbfE0YW32v9O1h/Q2L5Q2Jd11SEZqWutn0uthlgIHYDArTDroGHAQYYYIABBhhgoICBkaHl/7LBTQp/83lgxmbhlZGWtS+w9rEPWa4v3hAgQse7N+4be8MAAwzU14AA7cBr6GGAAQYYYIABBhjIaWDpoh+H9tR3FI/Ps7e15jnX3FBa36G06r0VoVmq2pz3Y44BBppuQIB28DX8MMAAAwwwwAADDOQwMPz0CaHVv1bh+Dw47/PWO8d6N31g8/m7Ey1E6O6sK6/WlQEGGGBgVQYEaIdfAxADDDDAAAMMMMBARgNL5u5WODy3+ieE4YVnWeuMa72q4cXfM9SWaUCE5qlMT16LJwYYYGD1BgRoB2BDEAMMMMAAAwwwwEAGAx39ywanbRiWvXSbdc6wzoa31Q9v1qb8tRGhy19TTq0pAwwwwMCbDQjQDsEGIQYYYIABBhhggIFRDIwM/Hdoz9i48DefB2ZuGl5Z+qw1HmWN3zyk+N8G1yoNiNC8VenNe/HGAANNNCBAOwgbhhhggAEGGGCAAQZWY2Dp85eG9pS3F4/Pj2xlbVeztk0cvnzmeKODCB3v3rhv7A0DDDCQvgEB2oHYUMQAAwwwwAADDDCwCgNDCyYXDs+tvjFhcN5nresq1tUQmf4QWdc9FKHZrKttn4ttBhjotQEB2qHYYMQAAwwwwAADDDDwJgMDsz9WOD63X/2XDZ5pTd+0pr0efLy/4TuLARGakyxO/BpOGGCAgXwGBGgHY8MRAwwwwAADDDDAwAoDIy+H9swPFY/P094Vlr38c+u5Yj39JwsJGhCh80UFEcZ6McAAAwysyYAAneCBaE2b6p+78RlggAEGGGCAgfwGlofj9rQNC8fngZmbhVeWvig4Ol8zUAMDInT+Z6ifO9aMAQYYYGB1BgToGhyOVre5/r4bnwEGGGCAAQYYyGZg+Jmvh1b/hOLx+ZFtREfnagZqZkCEzvb89HPGOjHAAAMMrMmAAF2zQ9KaNtw/91BggAEGGGCAAQbeaGDJ3N0Lh+fl/7LBoXkHC4/O1AzU1IAI/cbnpZ8f1oMBBhhgoIgBAbqmB6UiGPweDxEGGGCAAQYYaJqBgVn/r717D7fsLusEP3+eqlQqqaRyJVdISAghhIsGEOSiNqDcRUZwwFtLIxjUERUdsUVbaVuHp3W8gbY6g0472k8/bTfd4ANtOw1095x97qful1RVKtdKqtZaZ+999ub8886zT6WSItTlnL3X2ntdPn/kqaSoOmet3/tZv9/7ftnPOncNHT6nMzui+/CnBI/6aQZqbkAI7Wxs2tnofplngIG8DQiga94s5Q3G17MJMcAAAwwwwEAdDPTTr0Q6f9Pw4fP8jdE/9WXBo16agYYYEEI7++pw9rkHjhlgYFIGBNANaZgmBcz3tbkxwAADDDDAQNkMdB/+5zH49PLg9RnD/JMtvUDoqIdmoIEGhNDOs7KdZ66HSQYYqIoBAXQDG6eq4HSdNlIGGGCAAQYYyNtAe//bhgqdzwTVK7u/TfCof2agwQaE0M6lvM8lX48pBhhoggEBdIObpyYAd482cgYYYIABBhg4YyBbftEI4fPW6B75sOBR78wAAyGEdq6cOVf8ygIDDDCwMQMCaA2UJpoBBhhggAEGGKi1gX57IdKFW4YOn9PZq2P1xJ/Weo0MTxsbnqyTdTpjQAjNwhkLfmWBAQYYuLgBAbSB0zDFAAMMMMAAAwzU1sDqo78T6cyVw4fPC8+LfvdgbdfHwHTxgckaWaPzGRBCs3E+G36fDQYYYOAbDQigDZwGKgYYYIABBhhgoJYG2ge+d+jgefDO52z5nlqui4HoGwci62E9RjEghOZnFD/+Lj8MMNAUAwJoA6fBigEGGGCAAQYYqJ2BQXh85gcHDvNr5+C7arcmTRlw3KdhftwGhNDMjduc78ccAwxUzYAA2sBpuGKAAQYYYIABBmpjoN/eFenCrUOHz+nMjug+/Ju1WY+qDSeu10BdVQNCaHaratd1s8sAA+MwIIA2cBqwGGCAAQYYYICBWhg4/b7nncOHz/M3Rz/9ai3WYhyDhO9hYGXgGw0Iob9xPfiwHgwwwAADZwwIoA2chiwGGGCAAQYYYKDyBtoH3jF08Lz+vuelF1Z+Dc40+H417DEwOQNC6MmtPffWngEGGCivAQG0gdOwxQADDDDAAAMMVNrAqO97Xtn3XZW+f8NWeYcttWlmbYTQzay7513dGWCAgfMbEEAbOA1cDDDAAAMMMMBAJQ30V+YiXbhl+E8+ty6L7vFPVPLeDTjnH3CsjbUpgwEhNIdlcOgaOGSAgbIYEEAbOA1dDDDAAAMMMMBA5Qx0H/6NGPzAwMHrM4b5J52/Ifqn/q5y912WIcJ1GGgZuLgBIfTF14gja8QAAww0w4AA2sBp8GKAAQYYYIABBiplYGXfG4cKnc8E1enSXZW6X4NZMwYzda5nnYXQ9ayr51VdGWCAgc0ZEEAbOA1gDDDAAAMMMMBAZQxkyy8cKXxe2fu6ytyrwWZzg431sl5lNSCEZrOsNl0XmwwwMC4DAmgDpyGMAQYYYIABBhgovYH+qS9HOn/j8OFza3t0j/1c6e9zXEOA72PgZGC8BoTQ411vvq03AwwwUC4DAmgDp0GMAQYYYIABBhgotYHO0Z+OZOayocPn0+97/kKp79GQVK4hST3UowgDQmiuinDla3LFAANVMCCANnAaxhhggAEGGGCAgdIayHa/cujgefDOZ+97NpRVYShzjc1xKoRuTq0912rNAAMMPGNAAG3gLO3A6UF95kG1FtaCAQYYYKBxBvpppEt3jBQ+Z3ter8/R6zLAQOkMCKGd6Y070+1DpduHGLQPjduAANpGaCNkgAEGGGCAAQZKZWD1xJ9FOnfN8OHzzGXRPf6LpbqncTf5vp/BkoFyGxBCl7s+nh/1YYABBvI1IIA2cBrOGGCAAQYYYICB0hhoH3xPJNNbhw6f0/mbop/8fWnux/CS7/BiPa1nnQwIoXmuk2f3wjMDDFzIgADawGlAY4ABBhhggAEGSmEgW7536OD59Pue7y7FfVyo+fa/Gc4YYOBsA0JoHs724N95YICBuhoQQBs4DWoMMMAAAwwwwMBEDfRXZiJduHmk8Hll3xsneg91HRbcl0GYgeINCKGLX2OOrTEDDDAwWQMCaAOnYY0BBhhggAEGGJiYge6xn4tkZsfw4fPMFdF9+Dcmdv2GmckOM9bf+tfFgBCa5bpYdh8sM8DAuQwIoA2cBjYGGGCAAQYYYGAiBrLdrxo+eJ6einTh1ui3Fydy7edqrP2egYsBBkYxIITmZxQ//i4/DDBQZgMCaAOnoY0BBhhggAEGGBivgX4W6eKdI4XP2fJLxnvNjFhvBhgYgwEhtACpzAGSa+OTAQaGNSCAHkMTMWxx/D0PNgMMMMAAAwzUzcDqY78f6ew1I4TPW6J98H8WhOlhGWCgtgaE0M7+up397odpBhgQQGvcatu42eBscAwwwAADDJTLQHv/WyOZ3jJ0+DwIrlcf/1O9i/6VAQZqb0AIXa7zSz+hHgwwwMBoBgTQmrfaN282idE2Cetn/RhggAEG8jCQLb9o6OA5GbzveemOWOuf0rfoXRlgoDEGhNDO3zzOX1+DIwYYKIMBAbQGrjENXBkeONdg42eAAQYYaJqB/pP/PtL5G0YKn7Pdr9Sv6FkZYKCRBoTQ+oam9Q3ul3kG6mlAAK2Ra2QjZ0Or54amrurKAAMMlMtA+/AHImldOnz4PHN5dI7+lF5Fv8oAA402IIQu19mm11APBhhgYPMGBNCauUY3czaNzW8a1syaMcAAAwxsxEC2/NLhg+fBKzfmb45++lV9il6VAQYYWFsLIbSzdyNnrz/DCQMMlNWAAFpDp6FjgAEGGGCAAQZyM9BfaUW6cMtI4XO2/OLcrqesTbjrMiAywMBmDQihmdmsGX+eGQYYKIsBAbSB04DHAAMMMMAAAwzkYqBz9P5IZnaMED5vifb+d+ZyLWVptl2HwY8BBvI0IITmKU9PvhZPDDAwLgMCaAOnIY8BBhhggAEGGBjZQLbrW0YInqcinbsmVh/77MjXMa4m2vcxsDHAwKQMCKHZm5Q935c9BhgY1oAA2sBp0GOAAQYYYIABBoY20O8cjHTheSOFz9nSC2Lt652hr2HYRtjfM0QxwEBVDQih2a2qXdfNLgPNNCCANnAa9hhggAEGGGCAgaEMdI79XKSzV4wWPu95zVDf2/DSzOFF3dWdgWcMCKGfWQsurAUDDDBQbgMCaAOnoY8BBhhggAEGGNi0gWz3fSMFz8nMFdE5/oub/r6Gi3IPF+qjPgyM14AQerzrzbf1ZoABBoYzIIA2cBr8GGCAAQYYYICBjRvoPhjpwu0jhc/p4vOi39238e+pPtaKAQYYOK8BIfRwYYgQyboxwAAD4zMggNbInLeR8SCO70G01taaAQYYYKAKBroP/mKks1eOFD4PflhhFe7VNXomGWCgSgaE0LxWyatr5ZWB5hkQQAugDYEMMMAAAwwwwMBFDWS7XzFS8Jy0tkfngR+76PcxkDRvIFFzNWcgHwNC6HzWkUfryAADDORvQABt4DQIMsAAAwwwwAAD5zfQPRrp4oiv3Ji/KfrJfz7/97D+1oYBBhjIxYAQOv/QRBBlTRlggIHRDQigNTq5NDoextEfRmtoDRlggAEGymage+zncnjlxkv0GvpNBhhgYIwGhND6ibL1E66HSQYYEECPsRHwwHngGGCAAQYYYKAqBrLd9434yo1t0Tn4HqGTXpMBBhiYgAEhtH6jKv2G62SVgWYYEEBPoBnwcDXj4VJndWaAAQYYqKSB7v5IF28bKXxO558TvSf/Suikz2SAAQYmaEAIrQ+pZB8ywWfGenlmGCjOgADa5qYpZIABBhhggAEG1g10jt4fyewVI4XP2fI9PPHEAAMMlMSAELq4MEVQZW0ZYICBjRsQQJekMYB242itlbVigAEGGGAgfwPZrm8dKXhOWpdE+8DbhE56SwYYYKBkBoTQ+Z+Z+hBrygADDGzOgAC6ZM0BwJsDbL2sFwMMMMAAA6MZ6GX/LbKFW0YKn9O562L18X8ldNJXMsAAAyU1IIQe7azUa1g/BhhgYDQDAuiSNghgjwbb+lk/BhhggAEGLm6gc/gHI5m5bKTwOVt+kcBJP8kAAwxUwIAQ+uLnot7BGjHAAAPFGBBAV6BRgL8Y/NbVujLAAAMMNNlAtuulIwXPSWtrtPd/j9BJL8kAAwxUyIAQWu/T5N7HvfPPwOQMCKAr1Cx4UCb3oFh7a88AAwwwUBcDvSf/baTzN44UPp9+5cZnhE76SAYYYKCCBoTQepq69DTug2UGqmNAAF3BhsEDVp0HTK3UigEGGGCgTAba+98WSevSkcJnr9xgukymXQuPDAxnQAg93LrxZt0YYICB4QwIoAXQPrXAAAMMMMAAAw0wkC7dPVLwnLQuifb+t7DSACsGq+EGK+tm3apmQAjNbNXMul5mGaiuAQG0IcIgyQADDDDAAAM1NrD6yKcjnb12pPA5nb8+eo//CSc1dmKgq+5Ap3ZqN4oBITQ/o/jxd/lhgIGNGhBAGyQMkwwwwAADDDBQUwPZntdEMr1lpPA5W76Hj5r62OjA4M8ZLhmotwEhdL3r6/lVXwYYKIMBAbSBwlDJAAMMMMAAA3Uz0HsissXbRwqeB++K7hx4Jxt1s+F+mGaAgXMYEEILqMoQULkGDhmorwEB9DkOX+DrC15t1ZYBBhhgoO4Gukfvj3T2ipHC53T+xug9+f8IafSJDDDAQIMMCKH1SHXvkdwf4wxMzoAAukENhQdtcg+atbf2DDDAAAPjMJDtevlIwXMyPRXZ8ksFTvpDBhhgoKEGhND6lXH0K74HZww0z4AAuqGNhYe9eQ+7mqs5AwwwUF8DvZOfj3T+ptHC59Zl0Tn0vwid9IYMMMBAww0IoevbL+gF1ZYBBiZlQADd8OZiUvB8X5seAwwwwAAD+Rho739rDN7XPPj08rD/pAu3RC/9itBJX8gAAwwwsG5ACJ3PGa3XsY4MMMDAaQMCaA2GJpMBBhhggAEGKmogXbpr6ND5TFid7bpP/StafwONoZYBBoo0IITmq0hfvjZfDDTLgADawGHoZIABBhhggIGKGeg+9MlIZ68aKXxOZ6+M7tGfVPuK1d6w1qxhTb3Ve9IGhNAMTtqg788gA/UwIIA2dBg8GWCAAQYYYKBCBrLdrxgpeB588jldvCPWeifUvUJ1N3zVY/hSR3WsogEhNLdVdOuauWWgXAYE0AYPwycDDDDAAAMMVMDA4B3N6fzNI4bPW2Jlz2vUuwL1NjSVa2hSD/VougEhtGeg6c+A+/cMMDCaAQG0AcQQygADDDDAAAMlN9A+8K5IWttHCp/TuWtj9ZH/Xa1LXmvDzWjDjfWzfgwUZ0AIXdzacmttGWCg7gYE0IYQgygDDDDAAAMMlNhAlscPGly+R41LXOO6Dxzuz1DNQH0MCKHrU0vPpVoywMA4DQigDSMGUgYYYIABBhgooYHu8X8a6ezOkT71PPjU9ODT0+NsLn0vwwwDDDBQbwNC6HrX1/OrvgwwUIQBAXQJB84iCu1r2kAYYIABBhiojoFs9ytHC54HP2hw4eboJX8vfNbrMcAAAwzkbkAIXZ2eQv+nVgwwUAYDAmjNSO7NSBlguwYbLAMMMMBAFQ30Tn4+0rkbRg6fs933Od/1eAwwwAADhRoQQuu1qthruWZuGZiMAQG0pqTQpsSDPZkH27pbdwYYYKB6Blb2vSmS1iUjhc+DV3Z0H/y4s11/xwADDDAwFgNC6Or1G3pENWOAgUkYEEBrTMbSmEwCt+9pU2WAAQYYqISBr7cjW3z+SMFzMnjlxtJdznR9HQMMMMDA2A0IofVblei37A1j3xu4sDecbUAAbROyCTHAAAMMMMDAhAx0jnwokpkdo4XPrW2xsu/NajihGp7dWPt3gxYDDDTVgBCa/abad9/sM7AxAwJow4qBlQEGGGCAAQYmYCDb9dLRgufBp57nb4zeyb9VvwnUz7CxsWHDOlknBppjQAjdnFp7rtWaAQY2a0AAbWAxtDLAAAMMMMDAGA2sPvLpSGevGjl89oMGNf6bbfz9eWYYYKBoA0Joxoo25uszxkA1DQigxzhwekiq+ZCom7oxwAADDORlINvz2pGD53T2yuge+3n/p4EejgEGGGCglAaE0PqmvPomX4clBupjQACtaSll02KTqc8mo5ZqyQADDKxF79QXIp2/YeTwOVt6gXNb78YAAwwwUHoDQmj9n/6PAQYYONuAAFrzUvrm5Wyw/t0GxgADDDBQNQODHxCYtC4ZLXxuXRrtA29zZuvbGGCAAQYqY0AIrWerWs/meplloDgDAmgNTGUaGBtBcRuBtbW2DDDAQAEGukcjW7x9tOB5/QcN3hS95B+c13o2BhhggIHKGRBCF9BfeA4q9xzosz0HDKyFANrmbfNmgAEGGGCAgZwNdA7/QCSt7SOHz9meb1ebnGtjADAEMsAAA+M1IIQe73rzbb0ZYKCMBgTQhhqDLQMMMMAAAwzkaCBbetHIwXM6e3WsPvLb6pJjXcrYiLsmAyIDDDTFgBCa9aZYd5+sM3BuAwJog43hlgEGGGCAAQZyMNA9+tORzOwYOXzOll+iHjnUQ/N/7ubfulgXBhiYlAEhNHuTsuf7ssfA5A0IoA04hlwGGGCAAQYYGNFAtvtbRw6ek5nLo/PAB9VixFoYMCY/YKiBGjDAwPkMCKHZOJ8Nv88GA/U2IIA25Bh0GWCAAQYYYGBIA6sPfyqS2Z0jh8/p4h2x1svUYcg6GFjqPbCor/oyUC8DQuh61dPzqZ4MMLARAwJog45hlwEGGGCAAQaGMJDtec3IwXPSuiTa+7/H+g+x/htpdP0ZAxEDDDBQTgNC6HLWxfOiLgwwUJQBAbSBx9DLAAMMMMAAA5swsPr4H0U6d+3I4XO6cHP0kv9i7Tex9kU1xL6uYYsBBhgYvwEh9PjXnHNrzgADkzIggDb0GHwZYIABBhhgYIMGsr3fMXLwnExviWzvG6z5Btd8Uk2y72tAY4ABBoo3IIQufo05tsYMMFAGAwJow48BmAEGGGCAAQYuYqD35F9FOn/DyOHz4JPTvcc/Y70vst5laJJdg2GNAQYYGI8BIfR41pln68wAA5M0IIA2ABmCGWCAAQYYYOACBlb2vSkGn1pOpqdG+ifb/SrrfIF1nmRD7HsbyBhggIHJGhBCT3b9+bf+DDBQtAEBtEHIMMwAAwwwwAAD5zDQO/n5GLynedTgOZm5MrrHf9kan2ONi250fX3DFAMMMFAdA0Lo6tTKc6VWDDCwWQMCaMOQgZgBBhhggAEGnmWgvf8t+XzqedfLrO2z1nazzao/b8BhgAEGmmNACN2cWnuu1ZqBZhkQQBuKDMYMMMAAAwww8JSB3qkvRbpwaw6fer4sOkd+3Lp6thhggAEGGNikASF0s0IpIaR6M9AMAwLoTR6GHoxmPBjqrM4MMMBA8wy0D7w9n089L90tbNBfMcAAAwwwMIIBIXTz+jC9t5ozUG8DAugRDkUPR70fDvVVXwYYYKAZBnqnvpzPp55bl0bn0PcLHPRWDDDAAAMM5GBACN2MPky/rc4MNMOAADqHg9HD0oyHRZ3VmQEGGKifgfaBd+TzqefFO2Ote1zgoK9igAEGGGAgRwNC6Pr1XvppNWWgmQYE0Dkejh6iZj5E6q7uDDDAQPUM9E59MadPPV8S7QPfK2zQTzHAAAMMMFCQASF09fosvbGaMcDAsw0IoAs6JJ+90P7bw8cAAwwwwEA5DLT35/Ou53Tx9uivLAgc9FIMMMAAAwwUbEAIXY4eSi+rDgwwMKwBAXTBB+WwhfH3PNQMMMAAAwzka6B38t9FunBLJNNTI/6zNdoH3ils0EMxwAADDDAwRgNC6Hz7In2m9WSAgXEaEECP8cAcZ2F9LxsJAwwwwAADzxho739LLu96TheeF730KwIH/RMDDDDAAAMTMCCEfqa30edZCwYYqJIBAfQEDs0qAXGtNjQGGGCAgSob6J34XKTzN474iefBJ6YHn3p+u7BB38QAAwwwwMCEDQih9aZV7k1dO79NNSCAnvDh2VR47tumywADDDBQtIH2/jflEDxPrf+wwt6pLwsc9EwMMMAAAwyUxIAQWh9ZdB/p6zPGQL4GBNAlOUDBzhe29bSeDDDAQHMNrD76u5HOXZdD+LzFp571ScImBhhggIGSGhBCN7fX0+erPQPVMyCALulh6mGq3sOkZmrGAAMMTN7Ayt7vyCF4PvOp5y8JHfRJDDDAAAMMlNiAEHryvZf+Vw0YYGAjBgTQJT5MN1JAf8aDzgADDDDAwFp0j/9ypLNX5RA+D971/E5hg/6IAQYYYICBihgQQuuF9cIMMFB+AwLoihyqHqbyP0xqpEYMMMDAZAxku1+dQ/A8+NTz86KX/L3AQW/EAAMMMMBAxQwIoSfTg+l9rTsDDGzUgAC6YgfrRgvrz9kEGGCAAQbqbqBz9CcimdmRQ/i8NdoH3y1s0BMxwAADDDBQYQNCaL1v3Xtf98d4lQ0IoCt8wFYZnmu3cTLAAAMMDG2gl0W262U5BM9TkS0+P3rZfxc46IcYYIABBhiogQEhtP5y6P6yBv7dO/9lNiCAtslotBhggAEGGKiMgc7hH4mkdeno4XPrkmgfem9l7rvMzaRrM+wwwAADDJTJgBCaxzJ5dC08MnDagABa6GD4ZoABBjfSx68AACAASURBVBhgoPQGeunXIlu8c/TgeXoqsqW74uvdPaW/Z82qgYUBBhhggIHhDAihh1s33qwbAwwUZUAALXQwgDPAAAMMMFBqA52D74lkeuvo4XPr0ugc/qFS32tRDZ+va5hggAEGGGiaASE0800z736ZL7MBAbTQwSDOAAMMMMBAKQ30Tnw20vkbRw+eB596Xr431npPlvI+y9woujaDDAMMMMBAlQ0Iofmtsl/Xzm+dDAighQ6GcQYYYIABBkpnYGXfP8oleE5mLovOAx8q3f3VqZl0L4YjBhhggIEyGxBC81lmn66Nz6YYEEALHQzlDDDAAAMMlMZA99jHI5ndmUv4nO1+RWnuqymNpfs0RDHAAAMMlNGAEJrLMrp0TVw2yYAAWuhgOGeAAQYYYKAEBjqR7b4vl+A5mb0yusc+VoJ70lQ3qal2r7wzwAAD5TYghC53fTw/6sNAvQ0IoIUOBnQGGGCAAQYmaqDzwI9F0ro0l/B5Ze8bJnovGud6N87qq74MMMBAtQ0IoatdP8+f+jFQXQMCaKGDQZ0BBhhggIGJGOid/Hyki7flEjync9fF6iOfnsh9aISr2wirndoxwAADzTMghG5ezT3nas7A5A0IoIUOhnUGGGCAAQbGbqB94B2RTG/JIXzeEu39bx/79WtiJ9/EqoEaMMAAAwwMa0AIzc6wdvw9dhgYzoAAWuhgaGeAAQYYYGBsBroP/Wqks1fnEDxPRbrw3Og9+e/Gdu2azeGaTetm3RhggAEGymhACM1lGV26Ji7rakAALXQwuDPAAAMMMDAGA1+PbPcrcwmek9a26Bz6wBiuWQNc1wbYfbHNAAMMMDAwIITmwF7AAAPjMSCAFjoY4BlggAEGGCjUQPfIhyJpbc8lfM6WXxxr3QcKvV5N6HiaUOtsnRlggAEGymBACM1hGRy6Bg7rbkAALXQwxDPAAAMMMFCIgd6Tf73+moxkemr08HlmR3SO/XQh11n3Zs/9GWgYYIABBhi4sAEh9IXXhx/rwwADoxoQQAsdDPMMMMAAAwzkbqB94C05/ZDBqVjZ+4bcr2/UBsrf14QzwAADDDBQLwNC6HrV0/OpngyUy4AAWuhgqGeAAQYYYCA3A93jn4hk5srRP/E8PRXp3HWx+shv5XZtmtByNaHqoR4MMMAAA2UzIIRmsmwmXQ+TdTEggBY6GOwZYIABBhgY2UB/ZTGy5XtyCZ6T6S3RPvh9I19TXZo192HwYIABBhhgYHwGhNDjW2uurTUDzTEggBY6GPAZYIABBhgYyUDn0A9EMn1JLuFztnhn9JJ/GOl6NLLNaWTVWq0ZYIABBoowIITmqghXviZXTTYggBY6GPIZYIABBhgYykD3kd+KdO7aXILnZGZ7dI5+dKjraHIj594NMgwwwAADDBRjQAhdzLryal0ZaKYBAbTQwbDPAAMMMMDA5gz0Tka2+xX5BM/TU5Htee3mvr96WS8GGGCAAQYYGIMBIXQzgzIBqbozkL8BAfQYDi1w84drTa0pAwwwMBkDnQc+GElrWy7h8/oPGXz4Nw3QehEGGGCAAQYYKK0BIfRkek69vnVnoF4GBNAO+tIe9Dabem026qmeDFTbwOpjvx/p/HNyCZ6T6a3ROfQ+548ehAEGGGCAAQYqYUAIXe0+1hyifgxM3oAA2oFfiQPfZjH5zUIN1ICBphroRbbn1TkFz1ORLb0weivTzh79BwMMMMAAAwxUyoAQuqm9sPs2BzKQhwEBtEO/Uod+Huh9DZsnAwwwsDED3aMfjqR1aT7h88yO6D74C84cfQcDDDDAAAMMVNaAEHpjPaRe2zoxwMCzDQigHf6VPfyfjdl/2+AYYICBfAysPvaHkc7fkE/wPL0lVva92Vmj32CAAQYYYICBWhgQQufTb+rbrSMDzTIggNYE1KIJsHE1a+NSb/VmoCAD/ZXIdn9bTsHzVKQLt0bvxP/lnNFrMMAAAwwwwECtDAihC+pFPSe1ek7MbJ6Tsw0IoG1wNjgGGGCAAQaic+RD+b1uo7U9Okfv54orBhhggAEGGKitASG0cO3scM2/88DAhQ0IoDUEtW0IPPwXfvitj/VhgIGBgdXHfi/Suety+9RztufbnSt6CwYYYIABBhhohAEhtH7aTMUAAxszIIDWGDSiMbAhbGxDsE7WiYEGGegeiGzXy3MLntP558Tqo7/nTNFXMMAAAwwwwECjDAihG9Q/e7Yb9WybjfN9tgXQNhAbCAMMMMBAwwx0Dv1AJK1t+YTPrW3ROfJPGGqYIQ15vg259bSeDDDAQLUNCKGrXT/Pn/oxULwBAbSBUWjAAAMMMNAQA92HfzOS2Z35BM/TU5HtfmWs9U7y0xA/GvPiG3NrbI0ZYICB6hoQQle3dp47tWOgeAMCaEOj4IABBhhgoOYGeif/Y2SLL8gteB68M3r10d/lpuZuNOLFN+LW2BozwAAD9TIghK5XPT2f6slAfgYE0IZHAQIDDDDAQI0NrOx7UyTTW/MJn1uXRueBD/JSYy+a7PyabGtpLRlggIFmGhBCN7Punnd1Z+DCBgTQhkhBAgMMMMBADQ10j/1MJK3t+QTPT79u4wlWamhFs3zhZtn6WB8GGGCAgc0aEEIzs1kz/jwzdTcggDZIChMYYIABBmpkYPXEn0c6f0NuwXM6/5xYfeyPGKmRkbo3t+7PAMcAAwwwUAYDQmgOy+DQNXBYFgMCaAOlUIEBBhhgoAYG+u2lyHa9LLfgOWldGt2jH2GjBjbK0nS6DgMQAwwwwEDTDAihmW+aeffL/PkMCKANlsIFBhhggIGKG2gffHckrW25hc/ZntcyUXET52v8/L6hgAEGGGCAgfEaEEKPd735tt4MlNOAANqAKWRggAEGGKioge7xX4pkZkduwXO6cEv0nvgLHirqQbNdzmZbXdSFAQYYYEAIzYB9gIGmGxBAGzIFDQwwwAADFTPQe/KvIp2/ObfgOZm5PLoP/gIHFXPQ9CbW/RvkGGCAAQaqZEAIzWuVvLpWXvM2IIA2bAocGGCAAQYqYuDr7eXIdr08v+B5emu093+P+lek/nk3gb6ewYIBBhhggIHxGhBCj3e9+bbeDJTHgADa0Cl4YIABBhiogIH2gXfm+57npbuid+qLal+B2mucy9M4q4VaMMAAAwyMakAIzdCohvx9hqpoQABt8BQ+MMAAAwyU2ED32Mfyfc/z7FWx+ui/VPMS17yKDaVrNggxwAADDDCwcQNC6I2vFVfWioF6GBBAG0CFEAwwwAADJTSw+vgfRzp/fX6v22htj87hH1brEtZaU12Pplod1ZEBBhhgYDMGhNC8bMaLP8tL1Q0IoA2iwggGGGCAgRIZ6GdfjWzphfkFz9NTke15daz1Tqpziepc9QbS9RuCGGCAAQYYGN2AEHr0NeTQGjJQDQMCaMOoQIIBBhhgoBQGerGy9w2RTG/JLXxOF54bvSf/rfqWor7VaAw18OrEAAMMMMDAeA0Ioce73nxbbwYmY0AAbSgVTDDAAAMMTNhA59D7I2ltzy14TmauiO5Dv6quE66r5nYyza11t+4MMMAAA1UzIIRmtmpmXS+zmzUggDacCigYYIABBiZkoHv8EzEIi5PpqXz+aV0anUPvVc8J1XOzTZg/r3FngAEGGGCAgTMGhNAsnLHgVxbqaEAAbUgVVDDAAAMMjNnA6ok/jXT+OfmEzk+F19nuV8Va55hajrmWdWwO3ZOhhwEGGGCAgckYEEJPZt15t+4MFG9AAG1QFVYwwAADDIzJQD/9SmRLd+UaPJ9+z/PfquGYaqg5Lb45tcbWmAEGGGCgyQaE0Pw32b97r69/AbSBVWjBAAMMMFC0gdXHItvz7bkGz8nsldF96DfUruja+fqMMcAAAwwwwMCYDQih6xvCCVjVtqkGBNBjPkiaCs1922QZYKCpBtoH3pXzDxjcHp3DP2QQdH4zwAADDDDAAAM1NiCENj81dX5y3/W0L4Cu8YHloa3nQ6uu6spANQx0jvx4JDM7cvzU85ZY2fuGWFvrGTad3QwwwAADDDDAQAMMCKGr0febz9SJgYsbEEA34NDyIFz8QbBG1ogBBvIy0H3o1yKd3Zlj8Dy1/t7ofvo1g6YzmwEGGGCAAQYYaJgBIbQ5Ja85xddhaZIGBNANO7wmic33ttkxwECdDaye+JNI567PNXhO566L1cc/a9B0VjPAAAMMMMAAAw02IIQ2R9V5jnJvzfAtgG7wIeYhb8ZDrs7qzECxBvqnvhDp4m35Bs+zV0T32M8bNJ3RDDDAAAMMMMAAA+sGhNDF9vRmJuvLQLEGBNAOMw0NAwwwwMAQBvrtpciWX5Jr8JzMbI/OofeqxxD10DAW2zBaX+vLAAMMMMDA5A0IoSdfA8+BGjAwnAEBtCFX0MEAAwwwsBkD/VOxsue1kUxvzTF83hore14Xa71TarGZWvizvDDAAAMMMMBAwwwIoYcLv4SG1o2ByRoQQDfssPLATfaBs/7Wn4FqG2gfeHskre05Bs9TkS3fHf3svxsenccMMMAAAwwwwAADGzIghK72TGEmVL8mGhBAO+A2dMA18eFwzw4FBhg4Y6Bz+AcjmdmRa/Cczt8Yqyc+Zw92DjPAAAMMMMAAAwxs2oAQ2qxyZlbxKwtVMCCAdtBt+qCrAmzXaANmgIE8DHSPfjTS2SvzDZ5nd0b3oV+39zp/GWCAAQYYYIABBkYyIIQ28+Qx8/gaHI3DgADagTfSgTcOpL6HzZABBsZtoHv8E5HOXpVv8DxzRXSOfNie69xlgAEGGGCAAQYYyM2AENqsNO5ZyfdjbhgDAmgHX24H3zAA/R0bFwMMlMlA95HfjnTumlyD52Rme7QPvtte67xlgAEGGGCAAQYYKMSAENpMVaaZyrXweC4DAmgHYCEH4Lmw+T2bEAMMlNXA6uOfiXTuunyD59bWWNn7+ljrp/ZZZy0DDDDAAAMMMMBAoQaE0Gatss5arovNgQEBtEOw0EPQRmOjYYCBMhvoPfGXkc7flG/wPD0V2a57o99esL86YxlggAEGGGCAAQbGZkAIbfYq8+zl2prtUwDtMBzbYWizafZmo/7qXyYDvSf/NtKFW/MPnheeF72T/8G+6mxlgAEGGGCAAQYYmIgBIbS5q0xzl2vh8YwBAbRDcSKH4hmAfrUZMcDAOA30T30p0sXbcw+e07nrY/XxP7afOlMZYIABBhhggAEGJm5ACG3GGueM5XvxthEDAmiH48QPx41A9WdsaAwwMIqBfvrVSJdekH/wPHt1dB/+lH3UWcoAAwwwwAADDDBQKgNCaPPTKPOTv8tP3gYE0A7JUh2SeQP39WyaDDTbQD+bjmzp7gKC553RPfaz9k9nKAMMMMAAAwwwwEBpDQihmz0LmYXVv0wGBNAOy9IelmV6UFyLjZuBahkY/ADAbPmeSKa35Bo+pzNXROeBH7NvOjsZYIABBhhggAEGKmFACF2tOcbcqV51NSCAdmhW4tCs6wPovhwuDORroN/eFdnyiyNpbc01eE5al0fn4PfZL52ZDDDAAAMMMMAAA5UzIITOd+Yww1lPBjZvQADt8Kzc4elB3/yDbs2sWd0N9Dt7Ilu+t4DgeXus7HujfdJZyQADDDDAAAMMMFBpA0JoM2HdZ0L3V27jAmiHaKUPURtMuTcY9VGfog3027sLCp63xcqeb4+1/pP2SOckAwwwwAADDDDAQC0MCKHNZ0XPZ74+Y+czIIB2kNbiID0fcL9v82Ogngb67aXT73jO+1Ub01si2/Ut0e8esjc6HxlggAEGGGCAAQZqZ0AIXc/5yNyrrmU3IIB2oNbuQC37Q+f6HAwMDG+gvzIb2dLd+b9qY3oqsuUXRX9lzp7oXGSAAQYYYIABBhiotQEh9PDziFnO2jEwnAEBtIO11gerjWG4jcG6WbeyGeinX41s6a5Iprfk+8MFB8Hz0guin/5Xe6HzkAEGGGCAAQYYYKAxBoTQZr6yzXyup94mBdAO2MYcsDazem9m6lvP+vZPfTHSxefnHjong+B58fbon/o7e6BzkAEGGGCAAQYYYKCRBoTQ9ZyhzMbqWkYDAmgHbSMP2jI+jK7JIcHAMwZ6T/ybSBeeV0zwvPDc6D35t/Y+5x8DDDDAAAMMMMBA4w0IoZ+ZQcxj1oKB4gwIoB24jT9wbTDFbTDW1tpu1sDq438S6cLNBQXPN0fvib+x5zn3GGCAAQYYYIABBhg4y4AQ2ty22bnNn2dmswYE0GdtuptdPH/eA8cAAwzkY2D1kU9HOn9TIcHz4Ov2nvzXhgznHQMMMMAAAwwwwAAD5zEghM5nrjEfWkcGzm1AAH2ezReYc4OxLtaFAQbyNNA9/iuRzt9QUPB8Y/Se+AtDhnOOAQYYYIABBhhggIENGBBCm/XynPV8LZ7ONiCA3sAmfPaC+XcPEAMMMDC6gc7Rn4x07vrigufH/09DhvONAQYYYIABBhhggIFNGhBCjz7rmBetIQPfbEAAvcnNGKJvRmRNrAkDDGzUQPvwD0Y6d21BwfNN0TsheN5oLfw5zy0DDDDAAAMMMMDAuQwIobk4lwu/x8UoBgTQAmj/jzADDDBQuIH2/ndEOntVQcHz4IcLCp5HaQb8Xc0kAwwwwAADDDDAwNkGhNA8nO3Bv/MwqgEBtOCp8OBpVKT+vo2OgeoayPa+PtKZKwoMnv/SHuYcY4ABBhhggAEGGGCgAANC6OrOYWZotSubAQF0AZt02Yrsemw8DDAwVgPdQ5HtenmkM5cVEzwv3Bq9J//akOH8YoABBhhggAEGGGCgYANCaLPkWGfJgj27l8l5FkDD7cBmgAEGcjHQO/n5SJfujKS1rZjgefG26D/573O5Vo3H5BoPa2/tGWCAAQYYYICBahkQQlerXp4v9SqjAQG04EmYwwADDIxkYPXR34l04dZCQudkekuki3dG/9SXR7rGMh7ArkljyAADDDDAAAMMMFAVA0JoVqti1XWW06oAWvAk1GGAAQaGMtA9+lORzt9UTPDcuiTSpbujn/2Poa5N01HOpkNd1IUBBhhggAEGGKiuASF0dWvnuVO7SRsQQAuehDsMMMDApgy0D74n0rlrCwqet0e262XRb+/Z1DVN+jD1/TV0DDDAAAMMMMAAA00wIITmvAnO3WP+zgXQgichDwMMMLAhA9ne10c6u7OQ4DmduTyy3a+Ktd7jG7oWDUH+DYE1taYMMMAAAwwwwAADGzEghOZkI078GU7ONiCAFjwJexhggIHzGuivLES2dE8krcsKCp6viJW933ne73/2geXfNTAMMMAAAwwwwAADDJTDgBC6HHXwPKhDVQwIoAVPgh8GGGDgmwz0Tnw2ssXbImltLSZ4nr0q2gfe/k3ftyqHp+vU6DHAAAMMMMAAAww03YAQ2jPQ9GfA/W/8GRBAC54EQAwwwMDTBrpHP1rcDxacnlp/d3Tn0Puf/n4O7I0f2NbKWjHAAAMMMMAAAwyUzYAQmsmymXQ95TQpgBY8CYIYYICBaO//7kjnrink087JIHievyE6R3+SNdYYYIABBhhggAEGGKiZASF0OQM/Qay6lMmAALpmG3+ZcLkWmx0DJTfQORbZ8r2RzuwoLnheuCW6D/2aIcNZwwADDDDAAAMMMMBAjQ0IoUs++9XYntyhGvYE0B5CTQADDDTMQO/Ev4p0/f3O2woKnrdEunBb9E78CVsNs6X5q0bzp07qxAADDDDAAANFGBBCc1WEK1+zHq4E0MIBAREDDDTEQOfIhyKdv7Gg0Hkqktb2yJbvjl76NaYaYkozWI9mUB3VkQEGGGCAAQbyMiCEZikvS75OvSwJoIUEgiIGGKi5gZU9r4t09qrigueZKyLb822xttZjqeaWNIH1agLVUz0ZYIABBhhgoAgDQmiuinDla1bblQBaWCAwYoCBGhronfpiZIt3rn8qefBDAIv4Z/BDCzsH3sJPDf1o7qrd3Kmf+jHAAAMMMMDApA0IoRmctEHfv1wGBdCCA+ERAwzUyED32M9GunBzIYHzmRA7nb8hOg/8Y25q5EZzVq7mTD3UgwEGGGCAAQbqYEAIzXEdHLuHfBwLoAUIQiQGGKiBgZV93xnp7NXFBs8Lz43VR/4FLzXwoonKp4myjtaRAQYYYIABBhi4sAEh9IXXhx/r0xQDAmhBgjCJAQYqaqB38j9FtlTsazYGP1gwXbwzeqe+xElFnTSloXGfmncGGGCAAQYYYKCcBoTQ5ayL50VdxmlAAC1QECoxwEDFDHSP3h/p/I2Ffto5md0ZK7sHP1jQoWwNGGCAAQYYYIABBhhgYDQDQujR1o8/61d1AwJo4YqAiQEGKmGgF9nub4t0dmehwXM6d320D34fE5UwoQmrehPm+hlmgAEGGGCAgSYZEELz3iTv7vUbvQughQyCJgYYKLGB1Uf/INLF2yJpbSs2eF64NboPfZKFElvQwHxjA2M9rAcDDDDAAAMMMFA9A0Lo6tXMc6ZmeRgQQAsbBE4MMFBCA+0D74x07tpCQ+dkZntkSy/wfucS1j+PA97X0CgywAADDDDAAAMMlNGAEJrLMrp0TcW6FEALHoSPDDBQEgO9U1+MbPlFkcxcVmjwnM5eFdme16h7Sequ0Sm20bG+1pcBBhhggAEGGCifASF0+WriOVGTIg0IoAUQQigGGJiwgc4DPxrp3HMKDZ2T6an1H1zYeeCD6j3hehd5qPvamkYGGGCAAQYYYICBqhgQQrNaFauuc3SrAmhBhDCKAQYmYKC3MhPZrpdHOrOj2OC5tS2yxedH78Sfq/ME6qxRGb1RsYbWkAEGGGCAAQYYqK8BIXR9a+u5VduzDQigBRJCKQYYGKOB7tGfiHT+5mJD5+mpSGZ3Rrb7vljrr6jvGOt79gHr3zVcDDDAAAMMMMAAAwxc3IAQ+uJrxJE1qroBAbRgQjjFAAMFG+ivLES2+xXFf9p5/TUbN8TglR5VP5xcvwaLAQYYYIABBhhggIHmGBBCN6fWnutm1loAXXDw5MFq5oOl7uo+MNA98pGnPu28pdhPPLe2R7p4R/RO/IXg2Z7OAAMMMMAAAwwwwAADlTQghDZHy1Lqa0AA7WCq5MFkU6rvplT12vbSr6y/+iKZubzY0HnwaefZq2Jlz2s9w/ZxBhhggAEGGGCAAQYYqIUBIbRZv+qZgOs/t2EBtEOqFoeUB/zcD7h1Gd+6dA5/INL5GwsPnZP112zcHN1jP+vZtX8zwAADDDDAAAMMMMBA7QwIocc3x8oMrPW4DAigHVa1O6zG9fD4Pjbq3hP/OrJdL42ktb344HlmR2TL90Yv+x+eWfs2AwwwwAADDDDAAAMM1NqAENq8LXOplwEBtEOr1oeWDateG1ZZ6tne/5ZI564pPnQefNp57vroHPp+z6m9mgEGGGCAAQYYYIABBhplQAhtni9LBuA6RrcogHaANeoAs2mMvmk0dQ27D30ysqUXRNK6pPjgefBDBZfuit6Jz3k+7dEMMMAAAwwwwAADDDDQWANCaDN8UzOIut23ANpB1tiDrG4Ps/vJ/2AevO4i2/u6SGZ2FB86r3/a+Zpo73+zZ9K+zAADDDDAAAMMMMAAAww8ZUAInf+sKz+wpuM2IIB2qDnUGGDgWQY6B79/bD9QMGlti3Txzlh99HfV4Vl1GPeB6PtpwhhggAEGGGCAAQYYKKcBIXQ56+J5UZeNGhBACzyEXgwwsLYW3Yc/FdnyPeN5xcbg086zV0V733dYe88fAwwwwAADDDDAAAMMMLABA0JoYedGw05/rnxWBNAb2OTALR9cNVGTPAz0kn+IbO/rx/aKjfVPOy+9IFYf+bQG097LAAMMMMAAAwwwwAADDGzSgBBaFpBHFuBrjN+RAHqTmx2k40dqza153gY6B98T6dxzxvJe52T9085Xx8q+N2ou7bcMMMAAAwwwwAADDDDAwIgGhNAygrwzAl+veFMC6BE3PkiLR2qNrXEeBrpH749s6Y5IpreMJ3huXRrp8oti9fHPaDDtswwwwAADDDDAAAMMMMBAjgaE0HKCPHICX2N8jgTQOW6A4I4PrrW21hsxsPro70S261sjaW0fT+g8+LTz3PXRPvAuzaW9lQEGGGCAAQYYYIABBhgo0IAQWi6wkVzAnymHEwF0gZsh5OVArg7NqkPv1BdjZe93RjJ7xdhC52Tmssh23xe9k5/XYNpTGWCAAQYYYIABBhhggIExGRBCN2vel+9Ut94C6DFtih6S6j4kaleB2nWPRPvA90Y6d934QufpLZEuPDc6Rz+iubSPMsAAAwwwwAADDDDAAAMTMiCErsDMPiEb8pzy2BBAewgckgxU1kDn8A9HunDLGEPnqUhnd8bKvn8Ua6sPVXbdHMLlOYTVQi0YYIABBhhggAEGGBjdgBB69DXk0BoWaUAALXwUojFQKQOd9R8meOf4fpjg9FQkrUsjW35JrD76e5VaqyIPD19bc8IAAwwwwAADDDDAAANlMiCE5rFMHl3LN3oUQAsfBWoMlN5A98GPR7Z8TyStS8b7aeeFW6Jz+AOlXx8H2zcebNbDejDAAAMMMMAAAwww0EwDQuhm1t3zXv66C6CFj8I1BkppoHv8k5HtelkkrW3jDZ1nd0Z7/5tjrXuwlOviYC3/wapGasQAAwwwwAADDDDAwOQMCKEnt/bcW/vzGRBACx+FbAyUxkD34U9Ftuu+SFrbxxo6D75ftvu+6D3+2dKsxfk2bb/vQGeAAQYYYIABBhhggAEGLmxACH3h9eHH+ozbgABa+ChwY2CiBrqP/IvI9rxq/KHz9JbIFu+M7tH7J3r/4970fT+NBgMMMMAAAwwwwAADDDTBgBCa8yY4r8o9CqCFj8I3BsZuYHKh81Sk8zdG+9D7xn7PVTkUXKcmjQEGGGCAAQYYYIABBupiQAjNcl0sV/0+BNDCR0EcA2Mx0H34n0e2+xUT+KTzVKSzV0V7/3dHL/v/xnKvVT8YXL8mjQEGlohMEwAAED5JREFUGGCAAQYYYIABBupiQAjNcl0sV/k+BNDCR4EcA4UZWH3o1ybygwST6alIZi6PlT2vjd6JPyvs/qq8+bt2TRgDDDDAAAMMMMAAAww0xYAQmvWmWC/rfQqghY/COQZyNdA9/r9FtnR3JK1LxvuDBAehc+vSyHa9PLoPfTLXeyrrBu66NFEMMMAAAwwwwAADDDDAwMYMCKE3tk48WaciDAighY+COgZGM7D6UHSP/mSki7dHMr11/KHz9NbIll4YnWMfG+0+OLB+DDDAAAMMMMAAAwwwwECtDQihhatFhKu+5sVdCaAdLrU+XGwCF98EhlmjXvIP0Tn8g5HO3zCBwHkqkuktkS0+PzpHPsKvPYwBBhhggAEGGGCAAQYYYGDDBoTQxeQEw2QL/k5zaiGAtklveJO2MTRnYzhXrXtP/E20978l0tmdEwqdpyJdeG50HvgxZu1bDDDAAAMMMMAAAwwwwAADQxsQQjc73zhX5uH3ijUhgLZhD71heziLfTjLsL6rj/5uZLtfGUlr+wRD55ujc/iHY633GKv2KwYYYIABBhhggAEGGGCAgVwMCKHrn2mUIVdxDaedCaBt3Lls3B6ommzc3aPRPfYzkS7eEUlr2+RC5/mbonP4h2Kte5hPexQDDDDAAAMMMMAAAwwwwEAhBoTQNckyPB+FPB95Zn0CaEhLjzRP8L7WNx8u/VN/F+0D74p07tqJBc7J9FSkT4fO+5m0LzHAAAMMMMAAAwwwwAADDIzFgBD6m3MC2Yk1yduAANqGPpYNPW+4vt5om2H3kd+ObNfLJ/pqjcEPEkwXBq/X+FGfdLYP2YcYYIABBhhggAEGGGCAgYkZEEKPljHIaKzfxQwIoG3wE9vgL4bT/57fBtZfmYnO4Q9EOn9zJK1LJvhJ50Ho/NzoHvlwrPUfZs/+wwADDDDAAAMMMMAAAwwwUAoDQuj8Mgh5jrV8tgEBtI2+FBv9s2H679E3q9VH/+XpHyA4s2OCgfNUJNNbI1u8Y/3d0mtrPd7sOQwwwAADDDDAAAMMMMAAA6U0IIQePYuQ51jDcxkQQNv0S7npnwur37vwJtZPvxadQ+9bf5fyJH+A4OB9zoNPWWfLL47u8V/hyx7DAAMMMMAAAwwwwAADDDBQGQNC6AtnD7IZ6zOMAQG0Q6Ayh8AwwOv+d7rHfzmy5XsjmfinnAeh8/b1T1wPPnld93V3fw5cBhhggAEGGGCAAQYYYKC+BoTQ9a2t53YytRVAC6CFhRUysHriT2Nl33dFOnfN+qst1j9tPPjE8aT+mb0iVva9MXpP/CVHFXLkwJ3MgWvdrTsDDDDAAAMMMMAAA9UxIISuTq08V+WvlQBaaCQ4LLGBXvLl06/VWLhl/RPGEwuanw64t0Q6f/36NfWT/8JOie04gMt/AKuRGjHAAAMMMMAAAwwwUG4DQuhy18fzU536CKAFSELEMhnoHo3OkZ+IbOmucrxWY/19ztue+iGCH4u17nFeyuTFtfDIAAMMMMAAAwwwwAADDBRqQAhdnZBTIF3eWgmgbdSFbtQe/os//N0HPx7ZrpdFOrtzcq/SePoTzk+9zmPmssh2vypWH/0/+LBHMMAAAwwwwAADDDDAAAMMNNqAEPri2Yb8xxpdyIAA2iHS6EPkQg9HUf/b+g8O3P2KSGevKsd7nNfD5y2Rzl0b7YPvjv6pLzFhX2CAAQYYYIABBhhggAEGGGDgLANCaAFrUTlRE76uAPqszaQJBXeP498wTwfOr4p09upIWpeU51POre3rr/roPvgLsdZ/UmNhL2CAAQYYYIABBhhggAEGGGDgAgaE0OPPVORY9VhzAfQFNhbI64F83HUcBLrZ7vsinbsmkta28gTO01Prr/lY2ftd0XviLzUVnn0GGGCAAQYYYIABBhhggAEGNmlACC0rGnfOVIfvJ4De5EZTh6K7hxw3y347ukfvj2z5Jac/4Txdok84D16tMbM9ssXbo3v0o9HvHtFYeN4ZYIABBhhggAEGGGCAAQYYGNGAEDrHXGXEWsi4qlELATToDp5NGOivLEbn0A9EunRXJOs/NHBLqT7hnExvWX+39Mq+74zeic+p7SZq69CqxqGlTurEAAMMMMAAAwwwwAADZTAghOawDA6rcg0CaAGVkPICBnpP/lWs7HtzpAs3RzJ7RcnC5qn160lnLo9s+YXRPfaxWOs9oZ4XqGdVNmbXqZFhgAEGGGCAAQYYYIABBspvQAhd/hp5jspRIwG0sEpgeZaB7vFfimzXt0Q6d30krctKGTgnrUsjnb8hOgfeFf2T/0n9zqqfg6UcB4s6qAMDDDDAAAMMMMAAAww0xYAQmvWmWB/lPgXQwqvGBpi9U1+M9oHvjXTxtkhmr4qktbWcgfP6azV2xsqe10T3kU83tl6jbHT+roaAAQYYYIABBhhggAEGGGCgKANCaLaKslWXryuAFkA3I9DsZdE99vOnf1jg/HNi8NqKZPBD+kr6TzpzRWTL90Tn2M/EWu9kM2rkWVRnBhhggAEGGGCAAQYYYICBihoQQguh6xIWF3EfAuiKbmxFYKjT11x99A9iZe8bIp2/OdJS/rDAbwy/05kdkS0+PzqHfyR6K9MaDs8lAwwwwAADDDDAAAMMMMAAAxUzIIQWQtcpW8vzXgTQFdvM8ix+Xb7W4AcFtg+8LdKFWyOduzqS1rbSfrL5zCeuB4Hz4HrbB98TvZP/UVPhOWSAAQYYYIABBhhggAEGGGCgBgaE0ELouuRted6HALoGm1ueIMr+tXpP/JtoH3hXpAvPjXTumkha20sfNg9C59OB883RPvDOGNxD2dfZ9TkwGWCAAQYYYIABBhhggAEGGBjOgBB6uHXjrb7rJoAWQJc2DO2d+LNo739rpIvPi3S2OmHzM4HzLdE+8A6Bs2estM+Yw72+h7vaqi0DDDDAAAMMMMAAA5M1IISe7PrzX671F0ALx0oQjnWj+/BvxMqe10a68NQ7myvwGo0zr9M4HThfuR6Udw68O3qnvliCNS3XRmPjVw8GGGCAAQYYYIABBhhggIGmGRBCM9808+e7XwG0AHqsYWnv1Jej88CPRrZ8b6Rz16+/miKZ3lKJ12g8HTi3tkY6d1WkS3dF59D7o7+yONY1PN/D7PcdbAwwwAADDDDAAAMMMMAAAwyUy4AQulz18HxMph4CaAF0MeFp93h0H/qVpz7VfFukszsr877mp4Pm6anTwXhre6Rz10W262XRPfozsbbWK2bNWLSuDDDAAAMMMMAAAwwwwAADDNTOgBB6MqGnsLk86y6AtrGPtrH3slh95LdiZd+b1j8RfPpdzZdV6xPNZ4Lmp35NZ6+MdP6mWNnzhlh97A9HWx++rB8DDDDAAAMMMMAAAwwwwAADjTcghC5PGCqYHn8tBNAOgY0dAp1j0X3on8XKvjdHuvTCSOeujaRV7aB5/ZPOrUvX7yUbvE7j8A95nYbnYWPPg3WyTgwwwAADDDDAAAMMMMAAA5s0IIQef/ApbC7HmgugN7lZ1B1u79QXonPkw7Gy9w2RLt4R6exVkbQurfQnms9+pcbgVSCDH3S4sud1sfro7zss+WeAAQYYYIABBhhggAEGGGCAgbEZEEKXIxCte75XtvsTQDdwk+2vLET3+D+NzoF3rr/XOJ2/MZKZyyNpba1N0LweOs/siHT+hsiW7zn97ubeY2M7UMr2oLseBxwDDDDAAAMMMMAAAwwwwAAD5TAghC5HHTwP46uDALqmAXQv/Wp0H/zFaB98d2S77ot04ZZIZndE0rqkXiHzmfc3z1x2+gcFLt6x/iqNXvbfhM01te2AGN8BYa2tNQMMMMAAAwwwwAADDDBQjAEhdDHryms511UAXdWQrvdYrD7+megcvT/a+78nsuUXRzr3nNOfZJ6u2SeZz4TMZ359Omx+fnQOvTd6p/5O2FxVx66bXQYYYIABBhhggAEGGGCAgYYaEEKXMywVYudfFwF0WTe57oFYfeyPonPsf33qVRnfEun84FPMV9b3U8xnAuazf525PNK56+P0Dwl8f/ROfcnBXFazrotNBhhggAEGGGCAAQYYYIABBjZlQAidf9gpQC7fmgqgJ7Ex9h+O3hN/E6sP/7PoPPAjsbL3OyJbvjvS+YZ8gvnsgPnpf98SyewVMXgfdbbrJdE9en/0VxY3tWnbYMq3waiJmjDAAAMMMMAAAwwwwAADDDBwYQNC6AuvDz/VXx8BdJ4BdC+LfvpfY/Xxz0b3wY+vvx4i2/Pa9U/vpnPXNeP1GE8HylPnf9d0a3uks1dHunB7rOz7zlh95LcFzXk69LV4YoABBhhggAEGGGCAAQYYYKBSBoTQ1Q9ZBeXnr6EA+mIbcu+x6CX/OVYf/+PoHv+l9R9wt7LvjZHtelmkC8+NdO6aSGYui6Tu713eSLD87D/TuiTS2Ssjnb85sl3fGp0j/yR66f9bqQPA5nH+zcPaWBsGGGCAAQYYYIABBhhggAEG8jMghM5vLbks11o2K4DuHoneyc/H6mO/F90HPxGdBz4Y7QPvjJU9r4ts+d5IF54X6dy1kczsiKS1Taj87ED5vP+9dX3N0vkb1oP5zqHvj94T/7eg+WL/54b/nREGGGCAAQYYYIABBhhggAEGGDjLgBC6XMGpIDufelQngO4eXv8kcu/En0f3oV+P7rGfis7hH472gXfFyr7vimz3qyJbfnGki7evv0c4nbv6qSB5+1Nh8pbzvxLivMHqBV4j0cS/M/hE88yOZz7RPAiaT3zOQXHWQWFjymdjso7WkQEGGGCAAQYYYIABBhhgoKkGhNDs183+UwH012NtrR9ra71Y66/EWu9UrPUei7Xu8VjrHoqvt3dFb2U2eunXopd8OXon/0P0nvzrGITBq4/9wfo7fLsP/Wp0j308ukc/Gp0H/nF0Dr0v2gfeEYPXVazsfX1ku18d2e771n/AXLb8wkgX7zj9Cov5m2LwfuT1dwLP7ox05oqnguPLImldGknrkkimhcfJOAPv9Xc0XxXZ4p2R7X1DdI78ePROfUHQLGhmgAEGGGCAAQYYYIABBhhggAEGxmBACC2ErlMI/T+NNdgcZ4jqe134E9+DV4zMXBnpwq3rnx5vH3rv6R8GOPg/HsawkfoeNlIGGGCAAQYYYIABBhhggAEGGGDg/AaE0OdfG26qtTYC6DoH1es/BHBnpIu3Rbbn1dE+9L7oPvzr8fXOHiGzkJ0BBhhggAEGGGCAAQYYYIABBhgouQEhdLWCVsH4ueslgK50AL0lkpnLY/2H/y2/ONr73xydIx+J1cf+MNZ6TzhESn6I2JTOvSlZF+vCAAMMMMAAAwwwwAADDDDAwDMGhNDPrAUX1VwLAXSpA+it6+/DTudvjGz53mjv/+7oHPlwrD7y6eivzAmYBcwMMMAAAwwwwAADDDDAAAMMMMBAAwxsJIR+61vfGg8++CAPDfBQtSBeAD2xAHoQLl8e6dz1kS3dFSuDH/Z36P3RPf4r0TvxF7G2+pANw4bBAAMMMMAAAwwwwAADDDDAAAMMMLBu4EIhtPC5mp8MrlqQPOz1/v9T7RuJVC7zwwAAAABJRU5ErkJggg==;" vertex="1" parent="1">
          <mxGeometry x="1370" y="270" width="1440" height="790" as="geometry" />
        </mxCell>
      </root>
    </mxGraphModel>
  </diagram>
</mxfile>
